<svg xmlns="http://www.w3.org/2000/svg" viewBox="0 0 900 620" role="img">
<title>Volunteer moment illustration</title>
<defs><linearGradient id="bg" x1="0" x2="1" y1="0" y2="1"><stop offset="0" stop-color="#f0e7d5"/><stop offset="1" stop-color="#c8b99b"/></linearGradient><filter id="shadow" x="-20%" y="-20%" width="140%" height="140%"><feDropShadow dx="0" dy="20" stdDeviation="18" flood-color="#18302f" flood-opacity=".18"/></filter></defs>
<rect width="900" height="620" rx="48" fill="url(#bg)"/><circle cx="720" cy="120" r="76" fill="#f2b84b" opacity=".72"/><path d="M0 475 C155 400 292 525 452 445 S705 372 900 430 V620 H0Z" fill="#fffaf0" opacity=".55"/><path d="M0 520 C184 445 342 580 530 502 S725 424 900 470 V620 H0Z" fill="#18302f" opacity=".12"/>
<g filter="url(#shadow)"><rect x="84" y="94" width="380" height="244" rx="34" fill="#fffaf0" opacity=".94"/><rect x="124" y="132" width="116" height="116" rx="28" fill="#6d5f45" opacity=".22"/><circle cx="182" cy="190" r="34" fill="#6d5f45" opacity=".95"/><path d="M130 262 C168 235 206 235 246 262" fill="none" stroke="#6d5f45" stroke-width="22" stroke-linecap="round"/><text x="124" y="285" font-family="Inter, Arial, sans-serif" font-size="33" font-weight="800" fill="#18302f">Volunteer Moment</text></g>
<g opacity=".88"><circle cx="610" cy="300" r="16" fill="#fffaf0"/><circle cx="660" cy="355" r="13" fill="#fffaf0"/><circle cx="730" cy="312" r="18" fill="#fffaf0"/><path d="M585 388 C634 348 700 398 767 348" fill="none" stroke="#fffaf0" stroke-width="18" stroke-linecap="round"/></g>
</svg>