<?xml version="1.0" encoding="UTF-8"?>
<svg version="1.1" xmlns="http://www.w3.org/2000/svg" width="512" height="512">
<path d="M0 0 C1.38638672 0.60134766 1.38638672 0.60134766 2.80078125 1.21484375 C19.03627948 9.13739947 29.18019539 23.21395201 35 40 C37.69253239 51.64598462 37.70097812 66.94826653 33 78 C32.58621094 78.97839844 32.17242187 79.95679687 31.74609375 80.96484375 C25.97865589 93.42690976 17.12799898 101.96260265 7.1796875 111.109375 C2.60618856 115.32943834 -1.78202694 119.71938583 -6.13134766 124.16894531 C-8.95051713 127.03234045 -11.82863228 129.75315065 -14.875 132.375 C-19.30558848 136.20353722 -23.39891705 140.32421609 -27.5 144.5 C-32.1933195 149.27880802 -36.93991978 153.87155094 -42.01757812 158.24023438 C-45.50271827 161.33394006 -48.73807426 164.67436478 -52 168 C-57.68150111 173.79246792 -63.42297855 179.5233487 -69.89697266 184.44091797 C-71.90194366 185.99479805 -71.90194366 185.99479805 -74 189 C-73.95049536 191.03852552 -73.95049536 191.03852552 -73.31512451 193.17495728 C-73.10972801 193.97272205 -72.90433151 194.77048683 -72.69271088 195.5924263 C-71.65441141 199.20112161 -70.53892066 202.76952421 -69.33300781 206.32568359 C-68.94202156 207.49689003 -68.94202156 207.49689003 -68.5431366 208.6917572 C-67.68398086 211.26207201 -66.81851029 213.83021412 -65.953125 216.3984375 C-65.33888895 218.23297445 -64.72510894 220.06766415 -64.11175537 221.90249634 C-62.49018051 226.75012462 -60.86350749 231.59602544 -59.2354126 236.44146729 C-56.68368421 244.03785758 -54.13847345 251.6364347 -51.59477043 259.23551559 C-50.95530424 261.14586216 -50.31563975 263.05614235 -49.67578316 264.96635818 C-45.07024211 278.72036454 -40.5437787 292.49813217 -36.07421875 306.296875 C-31.42416979 320.6526939 -26.68283635 334.97499162 -21.8597374 349.27362442 C-20.82430125 352.34377817 -19.79045101 355.41446135 -18.7571106 358.48532104 C-18.07181778 360.52147079 -17.38650488 362.55761378 -16.70117188 364.59375 C-16.36231901 365.6004883 -16.02346615 366.6072266 -15.67434502 367.64447212 C-13.92178536 372.84852095 -12.16466649 378.05097005 -10.40014648 383.25097656 C-8.64894445 388.41288356 -6.90935868 393.57857416 -5.17762566 398.74704361 C-4.52524531 400.68697628 -3.86857854 402.62547326 -3.20742989 404.56243515 C-2.29721662 407.23059177 -1.40191598 409.90331488 -0.51000977 412.57763672 C-0.10279945 413.75376778 -0.10279945 413.75376778 0.31263733 414.95365906 C2.68487992 422.16510677 2.68487992 422.16510677 1 426 C-0.93322933 428.4639688 -3.11810977 430.62310726 -5.35571289 432.80981445 C-6.01910172 433.47378738 -6.68249054 434.13776031 -7.36598206 434.82185364 C-9.55885804 437.01194518 -11.76555667 439.18753224 -13.97265625 441.36328125 C-15.49667398 442.87983794 -17.01981039 444.39728077 -18.542099 445.91557312 C-22.54959148 449.9077988 -26.56895105 453.88786654 -30.59088135 457.86553955 C-34.69345908 461.92718775 -38.78472589 466.00019389 -42.87695312 470.07226562 C-50.90692525 478.05934831 -58.94947715 486.03363544 -67 494 C-69.60488368 491.44673885 -71.71696687 489.12606581 -73.55859375 485.97265625 C-74.01975586 485.19196777 -74.48091797 484.4112793 -74.95605469 483.60693359 C-75.68937012 482.34743896 -75.68937012 482.34743896 -76.4375 481.0625 C-77.51302055 479.24271923 -78.58988588 477.4237327 -79.66796875 475.60546875 C-80.2201709 474.6726709 -80.77237305 473.73987305 -81.34130859 472.77880859 C-83.92741695 468.44629678 -86.58521606 464.15942528 -89.25 459.875 C-90.34256013 458.11595511 -91.43500519 456.35683874 -92.52734375 454.59765625 C-93.08921387 453.69289551 -93.65108398 452.78813477 -94.22998047 451.85595703 C-97.43639769 446.68234756 -100.62396994 441.49714571 -103.8125 436.3125 C-104.4837793 435.22114746 -105.15505859 434.12979492 -105.84667969 433.00537109 C-107.21508699 430.78048569 -108.58341344 428.55555056 -109.95166016 426.33056641 C-113.29993688 420.88632432 -116.65004759 415.4432111 -120 410 C-121.33334242 407.83333892 -122.66667574 405.66667225 -124 403.5 C-124.66 402.4275 -125.32 401.355 -126 400.25 C-148 364.5 -148 364.5 -150.00097656 361.24829102 C-151.33090932 359.0872315 -152.66098685 356.92626106 -153.99121094 354.76538086 C-157.37778129 349.2636559 -160.76162196 343.76028256 -164.140625 338.25390625 C-167.46234624 332.84227201 -170.7914044 327.43523427 -174.12792969 322.03271484 C-175.36481853 320.02898073 -176.59987958 318.02411705 -177.83300781 316.01806641 C-179.50641199 313.29913113 -181.18912555 310.58621522 -182.875 307.875 C-183.3690332 307.06877197 -183.86306641 306.26254395 -184.37207031 305.43188477 C-185.52700095 303.58609487 -186.75571614 301.7867744 -188 300 C-190.16100115 299.77901946 -190.16100115 299.77901946 -191.84423828 301.63305664 C-192.57884277 302.38449951 -193.31344727 303.13594238 -194.0703125 303.91015625 C-194.885 304.73580078 -195.6996875 305.56144531 -196.5390625 306.41210938 C-197.39242188 307.28673828 -198.24578125 308.16136719 -199.125 309.0625 C-204.28117061 314.32675803 -209.43801317 319.46429195 -215.03466797 324.25952148 C-218.69253706 327.498894 -222.07778711 331.01545172 -225.5 334.5 C-230.18327224 339.26857774 -234.91966352 343.84975966 -239.98632812 348.20898438 C-243.65489554 351.47191 -247.06112599 354.99848712 -250.5 358.5 C-255.22541757 363.31149075 -259.96934893 367.96515067 -265.15820312 372.27929688 C-267.44447316 374.41525011 -269.25405836 376.38761158 -271 379 C-271.19057159 381.96009831 -271.19057159 381.96009831 -270.50439453 385.10375977 C-270.2974295 386.31173721 -270.09046448 387.51971466 -269.87722778 388.76429749 C-269.63157074 390.06024338 -269.3859137 391.35618927 -269.1328125 392.69140625 C-268.89567647 394.04188899 -268.66100163 395.39280601 -268.42868042 396.74412537 C-267.8130635 400.29563762 -267.17167217 403.84194334 -266.52246094 407.38745117 C-265.48506207 413.0644699 -264.47677887 418.74644007 -263.48781967 424.43208122 C-263.13742139 426.41532015 -262.76986855 428.39483682 -262.40066528 430.37464905 C-262.18739594 431.57947433 -261.97412659 432.78429962 -261.75439453 434.02563477 C-261.56023956 435.08532974 -261.36608459 436.14502472 -261.16604614 437.23683167 C-260.97418006 440.42966877 -261.17064349 441.40502572 -263 444 C-264.97795457 446.17253717 -266.97493754 448.25837907 -269.05444336 450.32910156 C-269.67414505 450.95391418 -270.29384674 451.57872681 -270.93232727 452.22247314 C-272.97968628 454.2837193 -275.03437832 456.33746461 -277.08984375 458.390625 C-278.51491562 459.8195831 -279.93976306 461.24876506 -281.36439514 462.67816162 C-284.34947246 465.67069841 -287.33839371 468.65933219 -290.32983398 471.64550781 C-294.16974311 475.47961017 -297.99814168 479.32498268 -301.82353878 483.17355728 C-304.76163039 486.12634896 -307.70658566 489.0722185 -310.65359688 492.01610565 C-312.06857876 493.43160221 -313.48118708 494.84947549 -314.89140129 496.26972198 C-316.85926114 498.24986202 -318.83635114 500.22029578 -320.81616211 502.18847656 C-321.40068146 502.78063965 -321.98520081 503.37280273 -322.58743286 503.98291016 C-326.65741512 508 -326.65741512 508 -330 508 C-330.20028305 507.41754517 -330.4005661 506.83509033 -330.60691833 506.23498535 C-333.21379502 498.65551282 -335.82497052 491.07752577 -338.4375 483.5 C-338.86029236 482.27314484 -339.28308472 481.04628967 -339.71868896 479.78225708 C-344.42745683 466.12522934 -349.16316105 452.47928705 -354.01171875 438.87109375 C-354.40457565 437.76774689 -354.79743256 436.66440002 -355.20219421 435.52761841 C-357.07041179 430.28515989 -358.94562372 425.0453248 -360.82983398 419.80859375 C-361.5038585 417.92321819 -362.17777423 416.03780374 -362.8515625 414.15234375 C-363.15797165 413.30788193 -363.4643808 412.4634201 -363.78007507 411.59336853 C-365.27322011 407.4017375 -366.4453017 403.44160592 -367 399 C-368.24088379 398.75338623 -369.48176758 398.50677246 -370.76025391 398.25268555 C-376.61840998 396.94630062 -382.18935732 394.97148154 -387.8359375 392.95703125 C-389.54211494 392.35555519 -389.54211494 392.35555519 -391.28276062 391.7419281 C-394.34866259 390.6602234 -397.41294575 389.57407928 -400.47658157 388.48597717 C-403.65936046 387.35686417 -406.84424085 386.23371475 -410.02905273 385.11035156 C-413.90564424 383.74269306 -417.78212449 382.37472791 -421.65776062 381.00436401 C-433.78065514 376.71838225 -445.91946656 372.47854457 -458.0625 368.25 C-459.90871265 367.60658766 -461.75490474 366.9631163 -463.60107422 366.31958008 C-467.73383233 364.87909602 -471.86682849 363.43929747 -476 362 C-475.11724529 357.48692884 -472.54331558 354.82019382 -469.53857422 351.48388672 C-468.96709152 350.83968277 -468.39560883 350.19547882 -467.80680847 349.53175354 C-462.48146263 343.56887411 -457.0181019 337.7332732 -451.51370049 331.93575859 C-447.8251753 328.04715664 -444.19132878 324.12941083 -440.65820312 320.09863281 C-417.19908388 293.42317287 -417.19908388 293.42317287 -404.88357544 292.1763916 C-394.69972151 291.96343972 -384.8786058 294.59849453 -375.25248718 297.68005371 C-358.79088647 303.23409282 -358.79088647 303.23409282 -342.51171875 301.296875 C-339.80841922 298.6856879 -338.02442747 296.15969464 -336 293 C-330.59861796 286.31627546 -324.43790066 280.36745521 -318.31640625 274.35546875 C-314.92081439 270.99671876 -311.61582231 267.62147576 -308.5 264 C-304.05564748 258.83439256 -299.17492912 254.12707707 -294.31640625 249.35546875 C-290.27253688 245.35547499 -286.43710931 241.26623552 -282.72802734 236.95507812 C-279.81624727 233.66071039 -276.69173802 230.5861903 -273.5625 227.5 C-272.92634766 226.86835938 -272.29019531 226.23671875 -271.63476562 225.5859375 C-270.09217194 224.05494226 -268.54642686 222.52712333 -267 221 C-274.01226807 215.75925229 -281.41425436 211.2878161 -288.93017578 206.81835938 C-295.0325676 203.18744181 -301.0935695 199.4975673 -307.125 195.75 C-308.88409856 194.65752629 -310.64321354 193.565079 -312.40234375 192.47265625 C-313.30710449 191.91078613 -314.21186523 191.34891602 -315.14404297 190.77001953 C-320.31765244 187.56360231 -325.50285429 184.37603006 -330.6875 181.1875 C-331.77885254 180.5162207 -332.87020508 179.84494141 -333.99462891 179.15332031 C-336.21951431 177.78491301 -338.44444944 176.41658656 -340.66943359 175.04833984 C-346.11367568 171.70006312 -351.5567889 168.34995241 -357 165 C-359.16666108 163.66665758 -361.33332775 162.33332426 -363.5 161 C-383 149 -383 149 -402.5 137 C-403.5734668 136.33943604 -404.64693359 135.67887207 -405.75292969 134.99829102 C-407.90994261 133.67083607 -410.06684447 132.34320065 -412.22363281 131.01538086 C-417.20791227 127.94711751 -422.19315627 124.88046647 -427.18258667 121.82058716 C-450.66784063 107.41741341 -450.66784063 107.41741341 -462 100 C-458.05377393 95.30106447 -453.97317803 90.78752979 -449.69433594 86.39038086 C-448.79540367 85.46231628 -448.79540367 85.46231628 -447.87831116 84.51550293 C-442.4068815 78.87683026 -436.90036297 73.27241438 -431.38279343 67.67891598 C-427.68492554 63.92943735 -423.99971961 60.16912449 -420.34130859 56.38110352 C-416.78808755 52.70255809 -413.2063614 49.05417394 -409.60260773 45.42514229 C-408.23820886 44.04112046 -406.88424905 42.6467251 -405.54125214 41.24192619 C-403.66234229 39.2805544 -401.74907459 37.36023253 -399.82324219 35.44506836 C-399.27952469 34.85977859 -398.73580719 34.27448883 -398.1756134 33.67146301 C-395.78392478 31.35995417 -394.18806416 30.01306224 -390.78273678 29.97562218 C-388.09824058 30.45631591 -385.59718553 31.16769025 -383 32 C-382.06481977 32.28140555 -381.12963955 32.56281111 -380.16612053 32.8527441 C-376.99539192 33.83912259 -373.85093184 34.88844383 -370.70532227 35.95214844 C-369.51472198 36.34935593 -368.3241217 36.74656342 -367.09744263 37.1558075 C-364.51934052 38.01599619 -361.94254703 38.87995919 -359.36673164 39.74697113 C-355.24371066 41.13476553 -351.11786662 42.51403458 -346.99168396 43.89239502 C-340.41180008 46.09154941 -333.83388668 48.29653391 -327.25675482 50.50390363 C-314.94233475 54.63654322 -302.62404259 58.7576299 -290.30568886 62.87852669 C-287.47816408 63.82444901 -284.65076844 64.7707559 -281.82347679 65.7173748 C-262.88022141 72.0593144 -243.91390789 78.32376584 -224.90844727 84.47724915 C-215.17851506 87.62889366 -205.47016595 90.83372595 -195.78515625 94.12109375 C-194.69266068 94.49104462 -193.6001651 94.86099548 -192.4745636 95.24215698 C-188.22403265 96.68250244 -183.97422205 98.12464438 -179.72924805 99.58129883 C-176.50100627 100.68735119 -173.26860078 101.78036194 -170.03515625 102.87109375 C-169.07513199 103.20419052 -168.11510773 103.53728729 -167.12599182 103.88047791 C-166.24402634 104.17571854 -165.36206085 104.47095917 -164.45336914 104.77514648 C-163.68593887 105.0371434 -162.91850861 105.29914032 -162.12782288 105.56907654 C-159.67497727 106.06582311 -158.32883839 105.88577051 -156 105 C-153.34458635 102.74786247 -153.34458635 102.74786247 -150.6875 99.9375 C-149.33205078 98.55884766 -149.33205078 98.55884766 -147.94921875 97.15234375 C-145.77572243 94.86947054 -143.70251479 92.51616716 -141.64453125 90.12890625 C-137.33257492 85.16381969 -132.65284625 80.60202544 -127.9609375 76 C-124.69334698 72.77025802 -121.52847667 69.51488375 -118.53125 66.03125 C-114.07439395 60.85685023 -109.1855361 56.13749431 -104.31640625 51.35546875 C-100.92081439 47.99671876 -97.61582231 44.62147576 -94.5 41 C-90.05564748 35.83439256 -85.17492912 31.12707707 -80.31640625 26.35546875 C-76.84811754 22.92481065 -73.49595487 19.47355881 -70.328125 15.76171875 C-53.51035579 -3.74862138 -23.64640487 -10.6392146 0 0 Z M-49 39 C-49.98709961 39.96655518 -49.98709961 39.96655518 -50.99414062 40.95263672 C-60.51060318 50.21816582 -60.51060318 50.21816582 -69.48828125 59.99609375 C-73.94011119 65.15935414 -78.82280092 69.87069357 -83.68359375 74.64453125 C-87.07918561 78.00328124 -90.38417769 81.37852424 -93.5 85 C-97.94435252 90.16560744 -102.82507088 94.87292293 -107.68359375 99.64453125 C-111.07918561 103.00328124 -114.38417769 106.37852424 -117.5 110 C-121.94435252 115.16560744 -126.82507088 119.87292293 -131.68359375 124.64453125 C-135.79420378 128.71054153 -139.7219254 132.85600595 -143.47460938 137.25585938 C-144.92224826 138.91109821 -146.4381964 140.45339775 -148 142 C-155.68217104 139.98295347 -163.23887514 137.69711988 -170.78125 135.2109375 C-171.91539337 134.83934509 -173.04953674 134.46775269 -174.2180481 134.0848999 C-177.32719702 133.06522814 -180.43546567 132.04292931 -183.54328156 131.01920319 C-185.51870141 130.368843 -187.49448858 129.71961106 -189.47039795 129.07073975 C-214.17184304 120.95846512 -238.83596883 112.73472504 -263.49615479 104.49804688 C-293.34780466 94.52146419 -293.34780466 94.52146419 -323.28466797 84.80419922 C-331.28739839 82.23891439 -339.24324751 79.58308054 -347.1567688 76.75271606 C-351.33467854 75.26045935 -355.52156071 73.79426558 -359.70880127 72.32843018 C-361.71435588 71.61724659 -363.71517321 70.89253949 -365.71063232 70.15350342 C-368.45784736 69.13638219 -371.21768403 68.16575167 -373.984375 67.203125 C-374.79578949 66.88858368 -375.60720398 66.57404236 -376.44320679 66.24996948 C-378.75548378 65.47408653 -380.55970402 64.96547733 -383 65 C-385.8704635 66.51829524 -387.83587992 68.61018745 -390 71 C-390.92868896 71.89122559 -391.85737793 72.78245117 -392.81420898 73.70068359 C-394.14174194 75.03607178 -394.14174194 75.03607178 -395.49609375 76.3984375 C-395.97450211 76.8782608 -396.45291046 77.35808411 -396.94581604 77.85244751 C-398.44544879 79.35759458 -399.94153128 80.86621214 -401.4375 82.375 C-402.46525983 83.40778595 -403.49325285 84.44033991 -404.52148438 85.47265625 C-407.01701598 87.97910287 -409.50938082 90.4886708 -412 93 C-409.490685 95.64107068 -407.11664951 97.7224661 -403.97265625 99.55859375 C-403.19196777 100.01975586 -402.4112793 100.48091797 -401.60693359 100.95605469 C-400.76727051 101.44493164 -399.92760742 101.93380859 -399.0625 102.4375 C-397.24271923 103.51302055 -395.4237327 104.58988588 -393.60546875 105.66796875 C-392.20627197 106.49627197 -392.20627197 106.49627197 -390.77880859 107.34130859 C-386.44629678 109.92741695 -382.15942528 112.58521606 -377.875 115.25 C-376.11595511 116.34256013 -374.35683874 117.43500519 -372.59765625 118.52734375 C-371.69289551 119.08921387 -370.78813477 119.65108398 -369.85595703 120.22998047 C-364.68234756 123.43639769 -359.49714571 126.62396994 -354.3125 129.8125 C-352.67547119 130.81941895 -352.67547119 130.81941895 -351.00537109 131.84667969 C-348.78048569 133.21508699 -346.55555056 134.58341344 -344.33056641 135.95166016 C-338.88632432 139.29993688 -333.4432111 142.65004759 -328 146 C-325.83333892 147.33334242 -323.66667225 148.66667574 -321.5 150 C-308.5 158 -295.5 166 -282.5 174 C-281.42693604 174.66032227 -280.35387207 175.32064453 -279.24829102 176.00097656 C-277.0872315 177.33090932 -274.92626106 178.66098685 -272.76538086 179.99121094 C-267.2636559 183.37778129 -261.76028256 186.76162196 -256.25390625 190.140625 C-243.44508351 198.00468097 -230.68179577 205.93254438 -218 214 C-221.98546575 218.73931362 -226.11319851 223.18168622 -230.55859375 227.49609375 C-232.54480742 229.53315449 -234.40034425 231.59945165 -236.25390625 233.75390625 C-240.79586615 238.98927651 -245.74164552 243.79098997 -250.68359375 248.64453125 C-254.7182249 252.63538702 -258.53971738 256.71652009 -262.24023438 261.01757812 C-265.96391909 265.21240607 -270.03655539 269.07416927 -274.0390625 273 C-277.30665302 276.22974198 -280.47152333 279.48511625 -283.46875 282.96875 C-287.92560605 288.14314977 -292.8144639 292.86250569 -297.68359375 297.64453125 C-301.07788956 301.00199926 -304.38171104 304.37578529 -307.49609375 307.99609375 C-311.2969526 312.41395398 -315.40681696 316.48069577 -319.5625 320.5625 C-321.02462626 321.9987708 -322.48430228 323.43754058 -323.94140625 324.87890625 C-324.6492627 325.56227051 -325.35711914 326.24563477 -326.08642578 326.94970703 C-328.04487247 328.90649567 -328.04487247 328.90649567 -329.30029297 331.15576172 C-330.71287387 333.45422703 -331.64154542 334.66206629 -334 336 C-338.64667176 336.16817761 -343.03334537 335.35585369 -347.57019043 334.46594238 C-350.11773584 333.97742287 -352.66941581 333.55683702 -355.23144531 333.15136719 C-361.84644535 332.10409911 -368.45061847 330.99474568 -375.0546875 329.88085938 C-377.89256005 329.40344248 -380.73136228 328.93189699 -383.5703125 328.4609375 C-384.85943039 328.24067398 -384.85943039 328.24067398 -386.17459106 328.01596069 C-392.5657629 326.86597832 -392.5657629 326.86597832 -399 327 C-401.63153705 328.80794181 -401.63153705 328.80794181 -403.9609375 331.375 C-405.28544922 332.72851562 -405.28544922 332.72851562 -406.63671875 334.109375 C-407.99216797 335.54023437 -407.99216797 335.54023437 -409.375 337 C-410.30979245 337.96490526 -411.24597731 338.92846363 -412.18359375 339.890625 C-414.46978134 342.24751942 -416.74082327 344.61724979 -419 347 C-417.53370667 349.93258665 -415.66769086 350.01394486 -412.60083008 351.07543945 C-411.44484818 351.47958572 -410.28886627 351.88373199 -409.09785461 352.30012512 C-407.82179155 352.73797419 -406.54568252 353.17568932 -405.26953125 353.61328125 C-403.95905581 354.06861226 -402.64881228 354.52461124 -401.33879089 354.98124695 C-397.87262541 356.18752067 -394.40349842 357.38504288 -390.93365479 358.58068848 C-387.45733423 359.78004057 -383.98359206 360.98680619 -380.50976562 362.19335938 C-376.57689072 363.559203 -372.64362656 364.92383152 -368.70845032 366.28303528 C-366.31917774 367.1086349 -363.93421522 367.94683159 -361.55410767 368.79849243 C-359.11847991 369.62188482 -356.6500804 370.35248479 -354.16244507 371.00204468 C-345.02822489 373.58446053 -345.02822489 373.58446053 -342.18077087 377.50450134 C-340.84843317 380.63307409 -339.8989348 383.7215143 -339 387 C-338.22571157 389.20101439 -337.44012116 391.39808119 -336.64404297 393.59130859 C-335.83964961 395.94239676 -335.03917461 398.2948284 -334.2421875 400.6484375 C-333.80858543 401.91744781 -333.37450351 403.18629425 -332.93997192 404.45498657 C-331.3495751 409.10168905 -329.76760634 413.75124959 -328.18579102 418.40087891 C-326.83888601 422.35905245 -325.48854131 426.31601942 -324.13357925 430.27144241 C-323.50595973 432.10813388 -322.88340016 433.94655191 -322.26095581 435.78500366 C-321.87690582 436.90702179 -321.49285583 438.02903992 -321.09716797 439.18505859 C-320.76361298 440.16590424 -320.43005798 441.14674988 -320.08639526 442.15731812 C-318.91571607 445.22053888 -317.510303 448.09114236 -316 451 C-314.34142301 449.58507994 -312.68386357 448.16895104 -311.03125 446.74707031 C-309.72291033 445.62177239 -308.41069226 444.5009602 -307.09375 443.38574219 C-305.19341305 441.75165037 -303.34615896 440.06989803 -301.5 438.375 C-300.85546875 437.83488281 -300.2109375 437.29476563 -299.546875 436.73828125 C-296.77917737 434.14208625 -295.05623187 432.29747331 -294.88705444 428.39393616 C-295.04810165 426.95189064 -295.04810165 426.95189064 -295.21240234 425.48071289 C-295.32892151 424.41679321 -295.44544067 423.35287354 -295.56549072 422.25671387 C-296.23406476 417.24564865 -297.01633155 412.26561812 -297.8828125 407.28515625 C-298.24890915 405.1139679 -298.61478838 402.94274288 -298.98046875 400.77148438 C-299.55450317 397.39810668 -300.13141537 394.02526364 -300.71240234 390.65307617 C-301.27690947 387.36502396 -301.83049894 384.07527527 -302.3828125 380.78515625 C-302.55982697 379.77679214 -302.73684143 378.76842804 -302.91921997 377.72950745 C-303.07623383 376.78760056 -303.23324768 375.84569366 -303.39501953 374.87524414 C-303.53634308 374.05206192 -303.67766663 373.2288797 -303.82327271 372.38075256 C-304.0741962 369.00047817 -303.84778371 366.089961 -301.73168945 363.36938477 C-301.19761475 362.89815186 -300.66354004 362.42691895 -300.11328125 361.94140625 C-299.51136963 361.39750244 -298.90945801 360.85359863 -298.28930664 360.29321289 C-297.63696045 359.72207764 -296.98461426 359.15094238 -296.3125 358.5625 C-294.94059275 357.32525849 -293.57085469 356.0856081 -292.203125 354.84375 C-291.15415039 353.89435547 -291.15415039 353.89435547 -290.08398438 352.92578125 C-286.23749281 349.37129139 -282.58107422 345.62791307 -278.92114258 341.88305664 C-276.08276389 339.00149556 -273.18754927 336.26012676 -270.12109375 333.62109375 C-265.69164595 329.79404661 -261.59979366 325.67447114 -257.5 321.5 C-252.8066805 316.72119198 -248.06008022 312.12844906 -242.98242188 307.75976562 C-239.49728173 304.66605994 -236.26192574 301.32563522 -233 298 C-229.11716293 294.04132627 -225.23659338 290.14941662 -221.03125 286.53125 C-216.62796818 282.73857952 -212.57013076 278.64426794 -208.5 274.5 C-203.74734003 269.66077063 -198.94153159 264.99627567 -193.79882812 260.57177734 C-191.42885767 258.50094811 -189.20756665 256.30455988 -187 254.0625 C-185.8553125 252.90427734 -185.8553125 252.90427734 -184.6875 251.72265625 C-184.130625 251.15417969 -183.57375 250.58570313 -183 250 C-180.35742237 252.4089851 -178.62487994 255.01850724 -176.76953125 258.06640625 C-176.13958252 259.09612549 -175.50963379 260.12584473 -174.8605957 261.18676758 C-174.18472412 262.30075928 -173.50885254 263.41475098 -172.8125 264.5625 C-172.09965124 265.7303359 -171.38634607 266.89789331 -170.67260742 268.06518555 C-169.18750174 270.49484501 -167.70437668 272.92569656 -166.22265625 275.35742188 C-162.77021428 281.0199384 -159.29036469 286.66557163 -155.8125 292.3125 C-155.14581299 293.3960376 -154.47912598 294.4795752 -153.79223633 295.59594727 C-149.70530393 302.23714978 -145.60757536 308.87154843 -141.5 315.5 C-134.65790519 326.54118371 -127.85248011 337.60483237 -121.04833984 348.66943359 C-117.70006312 354.11367568 -114.34995241 359.5567889 -111 365 C-109.66665758 367.16666108 -108.33332426 369.33332775 -107 371.5 C-106.34 372.5725 -105.68 373.645 -105 374.75 C-99 384.5 -99 384.5 -96.99829102 387.75292969 C-95.67083607 389.90994261 -94.34320065 392.06684447 -93.01538086 394.22363281 C-89.94711751 399.20791227 -86.88046647 404.19315627 -83.82058716 409.18258667 C-73.08088588 426.69874594 -73.08088588 426.69874594 -62 444 C-55.44622903 438.61359076 -49.52753365 432.64114873 -43.5625 426.625 C-42.53474017 425.59221405 -41.50674715 424.55966009 -40.47851562 423.52734375 C-37.98298402 421.02089713 -35.49061918 418.5113292 -33 416 C-39.89107456 394.59422217 -46.88312229 373.22491104 -54.04321289 351.9074707 C-57.94658992 340.2652354 -61.76131072 328.59553339 -65.55176544 316.91617584 C-71.0406357 300.0066542 -76.5972003 283.12110043 -82.2265625 266.2578125 C-82.74338152 264.70951563 -82.74338152 264.70951563 -83.27064133 263.12994003 C-85.71990904 255.79422917 -88.17217736 248.45952283 -90.625 241.125 C-93.11684086 233.67336447 -95.60756557 226.22135893 -98.09580612 218.76852036 C-99.07161336 215.84746453 -100.04925037 212.92702574 -101.02700806 210.00662231 C-102.45081148 205.75065775 -103.86004023 201.49009646 -105.26129913 197.22666168 C-105.95526399 195.13484749 -106.66826741 193.05051407 -107.38592529 190.96673584 C-107.96518768 189.22725677 -107.96518768 189.22725677 -108.55615234 187.45263672 C-108.88835785 186.47978729 -109.22056335 185.50693787 -109.56283569 184.50460815 C-110.08115279 181.53505826 -109.652292 180.46876385 -108 178 C-106.5546875 176.32421875 -106.5546875 176.32421875 -104.875 174.6875 C-104.06675781 173.88892578 -104.06675781 173.88892578 -103.2421875 173.07421875 C-101.29118939 171.26937555 -99.30284135 169.53445546 -97.2890625 167.80078125 C-92.81444003 163.90267878 -88.65645098 159.73216047 -84.5 155.5 C-79.81672776 150.73142226 -75.08033648 146.15024034 -70.01367188 141.79101562 C-66.34510446 138.52809 -62.93887401 135.00151288 -59.5 131.5 C-54.81672776 126.73142226 -50.08033648 122.15024034 -45.01367188 117.79101562 C-41.34510446 114.52809 -37.93887401 111.00151288 -34.5 107.5 C-29.83111564 102.74607221 -25.11157343 98.17063103 -20.0625 93.82226562 C-16.14775875 90.36350276 -12.45505462 86.68035426 -8.75 83 C-7.96109375 82.23171875 -7.1721875 81.4634375 -6.359375 80.671875 C1.12247257 73.24058045 5.04015402 67.192219 5.4375 56.5 C5.36718924 48.06270908 2.82004176 41.51128741 -2.640625 35.0625 C-4.34239003 33.47206539 -6.02520565 32.23220639 -8 31 C-8.64453125 30.59007812 -9.2890625 30.18015625 -9.953125 29.7578125 C-25.0781684 21.63510401 -38.13003206 28.27683535 -49 39 Z " fill="#000000" transform="translate(476,4)"/>
</svg>
