<?xml version="1.0" encoding="UTF-8"?>
<svg version="1.1" xmlns="http://www.w3.org/2000/svg" width="512" height="512">
<path d="M0 0 C1.38435898 -0.01131201 1.38435898 -0.01131201 2.7966848 -0.02285254 C4.31999717 -0.02769189 4.31999717 -0.02769189 5.87408352 -0.03262901 C7.49055701 -0.04343579 7.49055701 -0.04343579 9.13968652 -0.05446088 C12.76919479 -0.07727404 16.3986962 -0.09278185 20.02824306 -0.10816002 C22.62326635 -0.12260444 25.21828791 -0.13736202 27.81330776 -0.15241051 C51.50979077 -0.28470054 75.20680729 -0.34878743 98.90358734 -0.4002533 C102.07485958 -0.40726207 105.24613152 -0.41438907 108.41740322 -0.42163658 C109.20559653 -0.42343187 109.99378983 -0.42522717 110.80586778 -0.42707686 C123.56728718 -0.45712822 136.32829426 -0.52188278 149.08949811 -0.60032304 C162.19551665 -0.68021533 175.30132187 -0.72594491 188.40757936 -0.73927915 C195.76459834 -0.74767917 203.12088664 -0.77136038 210.47766209 -0.83394814 C217.40130975 -0.89281945 224.32373662 -0.90586767 231.24760723 -0.88807487 C233.78646689 -0.88895333 236.32537572 -0.90521182 238.86402225 -0.93811989 C260.44564164 -1.20332068 260.44564164 -1.20332068 266.50601101 4.11858559 C267.88818666 5.75893837 269.22773138 7.43625109 270.52018642 9.14818764 C272.0723675 10.70045163 273.64634652 12.23118372 275.23991299 13.74093056 C276.88272757 15.37790621 278.52291095 17.01752558 280.16081142 18.65941811 C281.06614117 19.56299553 281.97147091 20.46657295 282.90423489 21.39753151 C285.35436381 23.84315823 287.80138791 26.29186838 290.24766827 28.74134398 C292.81966494 31.31589658 295.39412789 33.88798124 297.96818447 36.46047401 C302.28012122 40.77060072 306.58996547 45.08281129 310.89860439 49.39623451 C315.87742655 54.38052129 320.85987343 59.36116296 325.84417057 64.33997428 C330.13750483 68.62877294 334.42889053 72.91951404 338.71864796 77.21189034 C341.27511836 79.76991794 343.83225552 82.32726919 346.3911581 84.882864 C349.23521161 87.72349617 352.07516697 90.56819109 354.91471767 93.41332436 C355.76143536 94.25801781 356.60815304 95.10271126 357.48052883 95.97300148 C358.25134289 96.74663536 359.02215694 97.52026924 359.816329 98.31734657 C360.48731121 98.98870581 361.15829342 99.66006504 361.84960842 100.35176849 C365.38329927 104.15164487 365.77174385 106.43222909 365.78024864 111.50208569 C365.78405431 112.15257512 365.78785998 112.80306456 365.79178098 113.4732658 C365.8021445 115.66817295 365.79818191 117.86282378 365.79434109 120.05774879 C365.79879095 121.64126176 365.80410416 123.22477249 365.81020981 124.80827993 C365.8244311 129.17181872 365.82605232 133.53528643 365.8256129 137.89884508 C365.82725754 142.6004741 365.8403176 147.30207354 365.85180569 152.0036869 C365.87468461 162.29104226 365.88257975 172.57837702 365.88763213 182.86575437 C365.8908865 189.28834164 365.8974075 195.7109229 365.90463352 202.13350677 C365.92420504 219.91225587 365.94060541 237.69099938 365.94351006 255.46975994 C365.94369763 256.60816929 365.9438852 257.74657864 365.94407845 258.91948524 C365.9444447 261.22739311 365.9448084 263.53530098 365.94516956 265.84320886 C365.94535237 266.98887871 365.94553518 268.13454856 365.94572353 269.31493568 C365.94599436 271.0355363 365.94599436 271.0355363 365.94627065 272.79089653 C365.94981127 291.37203251 365.97682417 309.95305252 366.01422142 328.53414828 C366.05230067 347.60664706 366.07166752 366.67908831 366.07196957 385.75162596 C366.07255431 396.46185943 366.08105666 407.17195465 366.10996723 417.88215256 C366.13447624 427.00385093 366.14176739 436.12536068 366.12671971 445.24708308 C366.11954826 449.90051813 366.12041826 454.55358068 366.1431303 459.20697403 C366.16373911 463.47035699 366.16110237 467.73308153 366.14025546 471.99645751 C366.13676413 473.53557147 366.14165553 475.07473311 366.1559599 476.61378456 C366.23361222 485.5472498 365.4967995 492.50124931 360.52018642 500.14818764 C359.96331142 501.05568764 359.40643642 501.96318764 358.83268642 502.89818764 C352.90359184 508.66703642 346.01251002 512.2668592 337.74413109 512.28520203 C336.53210327 512.29027657 335.32007545 512.29535111 334.07131952 512.30057943 C332.71930917 512.30118112 331.36729877 512.3016802 330.01528835 512.30208778 C328.58439437 512.30610219 327.15350153 512.31054038 325.72261006 512.31536734 C321.78094737 512.32734131 317.83929692 512.33298321 313.89761961 512.33754849 C309.64998945 512.34350154 305.40237396 512.35511221 301.15475368 512.365839 C290.89113338 512.39037097 280.62750822 512.40499191 270.36386761 512.41789907 C267.46512379 512.42161061 264.56638045 512.42558388 261.66763711 512.42965174 C243.66883524 512.45488933 225.67003262 512.47694362 207.67121696 512.48937988 C203.5013259 512.49230961 199.33143485 512.49527127 195.16154385 512.49828529 C194.12512951 512.49903134 193.08871518 512.49977739 192.02089436 512.50054605 C175.2342197 512.51319776 158.447651 512.54641775 141.66102587 512.58808713 C124.42819279 512.63051355 107.19541394 512.65407579 89.96252877 512.65930045 C80.28627098 512.6627139 70.61017874 512.67446128 60.93397236 512.70740318 C52.69245413 512.73541465 44.45113539 512.74639824 36.20957326 512.73520772 C32.00572596 512.73002374 27.80229632 512.73289057 23.59850979 512.75767326 C19.74590779 512.78019561 15.89402276 512.77940336 12.04140795 512.76046939 C10.65168242 512.7576735 9.26190797 512.7632452 7.87226098 512.77828233 C-0.83893525 512.86674021 -7.07327485 511.84718113 -14.47981358 507.14818764 C-15.38731358 506.59131264 -16.29481358 506.03443764 -17.22981358 505.46068764 C-23.97465543 498.52848907 -26.63424572 491.29985608 -26.60006809 481.81501198 C-26.60092252 480.95490271 -26.60177694 480.09479344 -26.60265726 479.20862025 C-26.60430926 476.31581513 -26.59879523 473.42306752 -26.59333897 470.53026772 C-26.59305701 468.46088602 -26.593215 466.39150422 -26.59378147 464.32212257 C-26.59406911 458.69437181 -26.58817777 453.06664224 -26.58120751 447.43889642 C-26.57496842 441.56120743 -26.57436973 435.68351798 -26.57318211 429.80582619 C-26.57007044 418.67114128 -26.56185925 407.53646615 -26.55183262 396.40178555 C-26.54066639 383.7272305 -26.53515974 371.05267499 -26.53013718 358.37811625 C-26.51967651 332.30146795 -26.50208023 306.22482834 -26.47981358 280.14818764 C-27.16462299 280.15440636 -27.84943241 280.16062508 -28.55499363 280.16703224 C-31.69528473 280.19190744 -34.83555499 280.20722568 -37.97590733 280.22240639 C-39.05303989 280.23235634 -40.13017246 280.24230629 -41.23994541 280.25255775 C-49.72395601 280.28327935 -57.2804129 279.45748292 -65.47981358 277.14818764 C-66.68250889 276.8194767 -67.8852042 276.49076576 -69.12434483 276.15209389 C-83.94090501 271.66833902 -96.97021743 264.51046644 -108.47981358 254.14818764 C-109.29450108 253.48689857 -110.10918858 252.82560951 -110.94856358 252.14428139 C-127.17782581 238.61133645 -137.86774077 219.27937304 -143.47981358 199.14818764 C-143.79950108 198.06150795 -144.11918858 196.97482826 -144.44856358 195.85521889 C-148.71341786 178.69707828 -148.46143061 158.10988773 -143.47981358 141.14818764 C-143.15110264 139.95064857 -142.8223917 138.75310951 -142.48371983 137.51928139 C-138.01666254 122.69607055 -130.84155809 109.65719033 -120.47981358 98.14818764 C-119.81852451 97.33350014 -119.15723545 96.51881264 -118.47590733 95.67943764 C-104.95379547 79.46316688 -85.60713317 68.73558235 -65.47981358 63.14818764 C-64.34672764 62.82850014 -63.2136417 62.50881264 -62.04621983 62.17943764 C-50.31838816 59.35534439 -38.4662384 59.85779717 -26.47981358 60.14818764 C-26.50599766 59.04942299 -26.53218174 57.95065834 -26.55915928 56.81859779 C-26.65039724 52.69999394 -26.70732697 48.58147735 -26.75447178 44.46215248 C-26.77944984 42.68725954 -26.81344483 40.91246771 -26.85701084 39.13793373 C-27.30527925 20.39504061 -27.30527925 20.39504061 -21.47981358 12.14818764 C-20.92293858 11.24068764 -20.36606358 10.33318764 -19.79231358 9.39818764 C-14.42601131 4.17692057 -7.58595769 0.04274386 0 0 Z M-3.47981358 23.14818764 C-6.45888688 28.08425554 -6.8962241 32.62825304 -6.77278233 38.26928139 C-6.76853748 39.01404228 -6.76429264 39.75880318 -6.75991917 40.52613258 C-6.74327082 42.87970237 -6.70564732 45.23238143 -6.66731358 47.58568764 C-6.65224873 49.19179497 -6.63856349 50.79791587 -6.62629795 52.40404701 C-6.5934131 56.31909811 -6.54172984 60.23349243 -6.47981358 64.14818764 C-5.40562168 64.52636635 -4.33142979 64.90454506 -3.22468662 65.29418373 C10.73882137 70.24080271 23.32589231 76.2504594 34.52018642 86.14818764 C35.87563564 87.28900795 35.87563564 87.28900795 37.25846767 88.45287514 C56.29128232 104.9321863 70.24257475 130.84512658 72.52018642 156.14818764 C73.14012003 170.58532618 73.62989354 185.17849771 69.52018642 199.14818764 C69.17987392 200.36892982 68.83956142 201.58967201 68.48893642 202.84740639 C60.16008599 230.22568838 41.22216527 253.47521999 16.02018642 267.02318764 C15.38137539 267.36817299 14.74256435 267.71315834 14.08439541 268.06859779 C9.60384945 270.3635522 4.97707337 272.11044125 0.23307705 273.77758217 C-0.41393162 274.00671806 -1.06094028 274.23585396 -1.72755527 274.47193336 C-3.31102367 275.03243294 -4.89533405 275.59055285 -6.47981358 276.14818764 C-6.54988558 302.88633745 -6.60279293 329.62447351 -6.63525009 356.36269665 C-6.65072088 368.77763437 -6.67181453 381.19251504 -6.70613194 393.60741615 C-6.7360277 404.42787096 -6.75538704 415.24828445 -6.76207906 426.06877941 C-6.76599099 431.79847733 -6.77518916 437.52805707 -6.79700375 443.25771713 C-6.81737158 448.65110094 -6.82364672 454.0443179 -6.81913662 459.43773651 C-6.81996168 461.41663838 -6.82592549 463.39554585 -6.83743 465.37441444 C-6.85237868 468.0784305 -6.84875847 470.78181847 -6.84057713 473.48584938 C-6.84931565 474.26699484 -6.85805417 475.0481403 -6.8670575 475.85295683 C-6.82504693 480.9978908 -6.18375324 484.70584456 -3.47981358 489.14818764 C2.69053923 493.29127697 9.71453961 492.56720221 16.91886806 492.52913857 C18.28935811 492.53259769 19.65984537 492.53736396 21.03032684 492.5433203 C24.78639571 492.5558251 28.54223543 492.54966236 32.29830503 492.54036164 C36.3529025 492.53356934 40.40746078 492.54405328 44.46205044 492.55230141 C52.40106948 492.565639 60.34000342 492.56276089 68.27902579 492.55406348 C74.73141888 492.54728745 81.18378812 492.54636987 87.63618374 492.54963493 C88.55463418 492.55009463 89.47308462 492.55055433 90.4193669 492.55102796 C92.28520005 492.55198714 94.15103319 492.55295978 96.01686633 492.55394574 C113.51147062 492.56249971 131.00602774 492.55266538 148.5006243 492.53654464 C163.51074936 492.52314145 178.52080481 492.52546954 193.53092861 492.53930092 C210.96307013 492.5553566 228.39517031 492.56167573 245.82731819 492.55246413 C247.68627516 492.55150848 249.54523213 492.55056537 251.40418911 492.54963493 C252.77614117 492.54894069 252.77614117 492.54894069 254.17580944 492.54823243 C260.62021188 492.54564251 267.0645881 492.55001359 273.50898647 492.55707359 C281.36290435 492.56548865 289.21673227 492.56320833 297.07063985 492.54723136 C301.07758329 492.53934872 305.08437677 492.5362569 309.09131908 492.54617882 C312.76028287 492.55512642 316.42895787 492.55019197 320.0978955 492.53424616 C322.0518566 492.52931436 324.00583778 492.53909433 325.95977783 492.54941785 C334.71334561 492.57894439 334.71334561 492.57894439 342.52018642 489.14818764 C346.91227284 482.78132438 345.92925795 475.01832318 345.88094997 467.5634861 C345.88225893 466.06426532 345.884887 464.5650452 345.88871747 463.06582874 C345.89541679 458.95418618 345.88343744 454.84277863 345.86838329 450.73116601 C345.85541919 446.29430161 345.85981265 441.85745029 345.86209011 437.42057228 C345.86366261 429.73606735 345.85425585 422.05163887 345.83737659 414.36715317 C345.81298799 403.25671026 345.80518146 392.1463043 345.80141262 381.03583752 C345.79484792 363.0095459 345.77488625 344.98329503 345.74650478 326.95702553 C345.7189647 309.44693645 345.69773086 291.93685845 345.68498135 274.42675209 C345.68419318 273.34729876 345.68340501 272.26784542 345.68259295 271.15568138 C345.67867782 265.7403421 345.6748867 260.32500273 345.67115724 254.90966332 C345.64006076 209.98914321 345.58722444 165.06866752 345.52018642 120.14818764 C344.33668102 120.13788017 343.15317562 120.12757271 341.93380642 120.1169529 C330.79456676 120.01930711 319.65538406 119.91658141 308.51623726 119.80884838 C302.78913913 119.75362255 297.06203588 119.70020301 291.33488369 119.65087318 C285.8105795 119.60322473 280.28633813 119.55088163 274.7621088 119.49524689 C272.65175148 119.47482554 270.54137693 119.45611209 268.43098927 119.43911362 C265.48108459 119.41506485 262.53129889 119.38501077 259.58146572 119.3535099 C258.70393139 119.34775444 257.82639706 119.34199898 256.92227077 119.33606911 C253.54905883 119.29497259 250.74171997 119.22203215 247.52018642 118.14818764 C246.18424692 114.14036912 246.34228478 110.2677259 246.31486416 106.08690834 C246.30496456 105.15988106 246.29506496 104.23285378 246.28486538 103.27773476 C246.25324706 100.20983889 246.22849157 97.14192753 246.20378017 94.07396889 C246.18321094 91.94832898 246.16221448 89.82269317 246.14080715 87.69706154 C246.08558336 82.09934235 246.03617539 76.50158623 245.98795986 70.90380287 C245.93774712 65.19291327 245.88205986 59.48207738 245.82682705 53.77123451 C245.7192417 42.56359809 245.61779752 31.35591506 245.52018642 20.14818764 C214.80998259 20.07974089 184.09979622 20.02665398 153.38953432 19.99499165 C149.76340716 19.99123956 146.13728015 19.98735659 142.51115322 19.98339272 C141.78926062 19.98260578 141.06736802 19.98181885 140.32359988 19.98100808 C128.63682548 19.96795632 116.95009538 19.94430375 105.26334726 19.91672925 C93.27049462 19.88866863 81.27766516 19.87200999 69.28478104 19.86592215 C62.54904889 19.8621762 55.81340909 19.85317105 49.07771015 19.83099747 C42.73879916 19.81064668 36.40003008 19.80435106 30.06108952 19.80886459 C27.73387665 19.80803877 25.40665908 19.80206487 23.07947445 19.79057121 C19.90254969 19.77564946 16.72616103 19.77923322 13.5492239 19.78742409 C12.1673945 19.7743163 12.1673945 19.7743163 10.75764936 19.76094371 C5.26514401 19.79922916 1.34760578 20.44476395 -3.47981358 23.14818764 Z M265.52018642 36.14818764 C265.52018642 57.26818764 265.52018642 78.38818764 265.52018642 100.14818764 C286.64018642 100.14818764 307.76018642 100.14818764 329.52018642 100.14818764 C325.64471453 95.62680375 321.82271995 91.30465062 317.62248135 87.12108803 C317.06725796 86.56411232 316.51203457 86.00713661 315.93998623 85.43328285 C314.12935941 83.61830316 312.31515784 81.8069481 310.50065517 79.99584389 C309.23352608 78.72804044 307.96654539 77.46008863 306.69970608 76.19199562 C304.05790943 73.54873141 301.41432905 70.90726794 298.769454 68.26708412 C295.37185992 64.87522196 291.97882207 61.4788428 288.58707619 58.08113384 C285.97847349 55.46892991 283.3675091 52.85909709 280.75580692 50.24999237 C279.50268783 48.99754196 278.25031554 47.7443439 276.99869251 46.49039841 C275.25850127 44.74768407 273.51516579 43.00817926 271.77091885 41.26952553 C270.99096302 40.48653336 270.99096302 40.48653336 270.19525051 39.68772316 C268.19937366 37.23135193 268.19937366 37.23135193 265.52018642 36.14818764 Z M-26.47981358 81.14818764 C-26.47981358 107.21818764 -26.47981358 133.28818764 -26.47981358 160.14818764 C-0.40981358 160.14818764 25.66018642 160.14818764 52.52018642 160.14818764 C47.46775601 133.20189208 36.29633502 111.20418092 13.39128017 95.37523842 C2.0982196 87.96932474 -12.75681248 81.14818764 -26.47981358 81.14818764 Z M-100.92121983 107.50365639 C-119.38402926 126.58659072 -126.07390124 149.92514062 -125.75715733 175.94115639 C-125.04958088 199.0447595 -113.97011854 220.22740655 -97.47981358 236.14818764 C-77.02566868 254.22843717 -53.65076339 260.31264579 -26.66633701 259.36596107 C-9.49281398 258.19228788 7.66629246 250.47127759 20.52018642 239.14818764 C21.31553799 238.50623451 22.11088955 237.86428139 22.93034267 237.20287514 C38.48792779 224.17009131 49.64862423 204.09226641 52.06559658 183.93871498 C52.21561123 182.68784096 52.36562588 181.43696693 52.52018642 180.14818764 C51.3492091 180.13788017 50.17823177 180.12757271 48.97177029 180.1169529 C37.9502593 180.01930564 26.92880586 179.9165798 15.90738869 179.80884838 C10.24082492 179.75362337 4.57425599 179.70020396 -1.0923624 179.65087318 C-6.55831237 179.60322352 -12.02419887 179.55088037 -17.4900732 179.49524689 C-19.57810167 179.47482609 -21.66614753 179.45611255 -23.75420666 179.43911362 C-26.67297896 179.41506364 -29.59163109 179.38500972 -32.51033115 179.3535099 C-33.37851475 179.34775444 -34.24669834 179.34199898 -35.14119053 179.33606911 C-38.49493991 179.29477729 -41.2768138 179.21585423 -44.47981358 178.14818764 C-45.80686924 174.16702064 -45.65760654 170.33136614 -45.68513584 166.17870522 C-45.69503544 165.2614315 -45.70493504 164.34415779 -45.71513462 163.39908791 C-45.74675137 160.36365793 -45.77150781 157.32821229 -45.79621983 154.29271889 C-45.8167892 152.18949919 -45.83778566 150.08628362 -45.85919285 147.98307228 C-45.91441524 142.4445372 -45.96382383 136.9059648 -46.01204014 131.36736488 C-46.0622539 125.71679802 -46.11794063 120.06628541 -46.17317295 114.41576576 C-46.2807566 103.3266194 -46.38220116 92.23742594 -46.47981358 81.14818764 C-66.84983466 81.14818764 -86.76052061 94.12395364 -100.92121983 107.50365639 Z " fill="#000000" transform="translate(146.47981357574463,-0.14818763732910156)"/>
<path d="M0 0 C1.46021611 0.88003008 2.90215377 1.79208167 4.3125 2.75 C5.22 3.306875 6.1275 3.86375 7.0625 4.4375 C14.185239 11.75809286 16.62796377 19.53339098 16.70410156 29.48168945 C16.58622901 35.86046325 14.91138135 40.45135544 11.3125 45.75 C10.755625 46.6575 10.19875 47.565 9.625 48.5 C5.35042228 52.65904859 -0.03065389 55.86438463 -5.6875 57.75 C-6.77675781 57.61980469 -7.86601562 57.48960937 -8.98828125 57.35546875 C-14.12225602 56.74607957 -19.12941933 56.16770132 -23.69335938 58.99072266 C-28.22174548 62.75168349 -31.95135016 67.2250758 -35.6875 71.75 C-40.39995771 77.24230992 -45.2707864 82.56180511 -50.25 87.8125 C-51.66562478 89.31095214 -53.08098445 90.80965478 -54.49609375 92.30859375 C-55.19976074 93.05351074 -55.90342773 93.79842773 -56.62841797 94.56591797 C-59.70106991 97.82510036 -62.75816936 101.09865472 -65.8125 104.375 C-66.65433838 105.27762573 -66.65433838 105.27762573 -67.51318359 106.19848633 C-69.87817594 108.73483034 -72.24226451 111.27201494 -74.60595703 113.80957031 C-75.9029472 115.20185614 -77.20014449 116.59394906 -78.49755859 117.98583984 C-79.71842188 119.29560865 -80.93882478 120.6058068 -82.15869141 121.91650391 C-82.98312744 122.80088135 -82.98312744 122.80088135 -83.82421875 123.703125 C-84.30592529 124.22036133 -84.78763184 124.73759766 -85.28393555 125.27050781 C-86.6875 126.75 -86.6875 126.75 -88.37817383 128.29199219 C-88.81025146 128.77313477 -89.2423291 129.25427734 -89.6875 129.75 C-89.47382459 132.45655524 -88.81391569 134.48028103 -87.6640625 136.93359375 C-85.3675321 143.55678744 -85.55222974 152.16779263 -87.66796875 158.84375 C-88.8630919 161.28547852 -90.16134904 163.50304304 -91.6875 165.75 C-92.244375 166.6575 -92.80125 167.565 -93.375 168.5 C-100.69559286 175.622739 -108.47089098 178.06546377 -118.41918945 178.14160156 C-124.79796325 178.02372901 -129.38885544 176.34888135 -134.6875 172.75 C-135.595 172.193125 -136.5025 171.63625 -137.4375 171.0625 C-143.96299279 164.35574352 -146.86664128 157.15717333 -146.875 147.9375 C-146.88724609 147.23818359 -146.89949219 146.53886719 -146.91210938 145.81835938 C-146.92183185 142.35391651 -146.72226463 139.83358083 -145.3828125 136.61328125 C-145.15335938 135.66839844 -144.92390625 134.72351563 -144.6875 133.75 C-146.17066875 131.36168543 -147.45600489 129.73348872 -149.375 127.75 C-150.40873689 126.6103237 -151.43990968 125.46831736 -152.46875 124.32421875 C-153.00371094 123.73817871 -153.53867187 123.15213867 -154.08984375 122.54833984 C-156.65583625 119.66002983 -159.01289456 116.61801388 -161.375 113.5625 C-162.28090475 112.39947058 -163.18714856 111.23670517 -164.09375 110.07421875 C-164.526875 109.51782715 -164.96 108.96143555 -165.40625 108.38818359 C-168.46318385 104.47964203 -171.57803623 100.61678302 -174.6875 96.75 C-175.18378906 96.91242188 -175.68007813 97.07484375 -176.19140625 97.2421875 C-179.66500223 97.94886587 -183.09685625 97.89429705 -186.625 97.875 C-187.32818359 97.87886719 -188.03136719 97.88273437 -188.75585938 97.88671875 C-191.81891738 97.88097731 -194.37272075 97.8625229 -197.27734375 96.82421875 C-199.68045984 96.5000386 -199.68045984 96.5000386 -201.20385742 97.88085938 C-203.00344543 99.66204887 -204.66040727 101.51869762 -206.3125 103.4375 C-207.23228638 104.46556763 -207.23228638 104.46556763 -208.1706543 105.5144043 C-209.42424415 106.91645201 -210.67158164 108.32411519 -211.91259766 109.73730469 C-213.95565614 112.05408242 -216.04162596 114.32698699 -218.14111328 116.5925293 C-219.48013343 118.04100941 -220.80465227 119.50285162 -222.12890625 120.96484375 C-223.85355673 122.84221138 -225.61263827 124.68844961 -227.40234375 126.50390625 C-228.23894531 127.36886719 -229.07554687 128.23382813 -229.9375 129.125 C-230.68515625 129.87523437 -231.4328125 130.62546875 -232.203125 131.3984375 C-233.97781698 133.6849961 -233.97781698 133.6849961 -233.4453125 136.5546875 C-233.19523437 137.60914063 -232.94515625 138.66359375 -232.6875 139.75 C-231.96817 149.57399255 -231.95763306 157.31389853 -237.6875 165.75 C-238.244375 166.6575 -238.80125 167.565 -239.375 168.5 C-246.69559286 175.622739 -254.47089098 178.06546377 -264.41918945 178.14160156 C-270.79796325 178.02372901 -275.38885544 176.34888135 -280.6875 172.75 C-281.595 172.193125 -282.5025 171.63625 -283.4375 171.0625 C-290.560239 163.74190714 -293.00296377 155.96660902 -293.07910156 146.01831055 C-292.96122901 139.63953675 -291.28638135 135.04864456 -287.6875 129.75 C-286.8521875 128.38875 -286.8521875 128.38875 -286 127 C-279.25381072 120.43614016 -272.07952406 117.57490798 -262.8125 117.625 C-262.10480469 117.62113281 -261.39710938 117.61726563 -260.66796875 117.61328125 C-257.58900814 117.61901488 -255.013986 117.6334681 -252.09375 118.67578125 C-249.69403309 118.99961193 -249.69403309 118.99961193 -248.17138672 117.61914062 C-246.37160533 115.83802364 -244.71464877 113.98136747 -243.0625 112.0625 C-242.14271362 111.03443237 -242.14271362 111.03443237 -241.2043457 109.9855957 C-239.95075585 108.58354799 -238.70341836 107.17588481 -237.46240234 105.76269531 C-235.41934386 103.44591758 -233.33337404 101.17301301 -231.23388672 98.9074707 C-229.89486657 97.45899059 -228.57034773 95.99714838 -227.24609375 94.53515625 C-225.52144327 92.65778862 -223.76236173 90.81155039 -221.97265625 88.99609375 C-221.13605469 88.13113281 -220.29945313 87.26617187 -219.4375 86.375 C-218.68984375 85.62476563 -217.9421875 84.87453125 -217.171875 84.1015625 C-215.39718302 81.8150039 -215.39718302 81.8150039 -215.9296875 78.9453125 C-216.17976563 77.89085937 -216.42984375 76.83640625 -216.6875 75.75 C-217.40683 65.92600745 -217.41736694 58.18610147 -211.6875 49.75 C-211.130625 48.8425 -210.57375 47.935 -210 47 C-202.67940714 39.877261 -194.90410902 37.43453623 -184.95581055 37.35839844 C-178.57703675 37.47627099 -173.98614456 39.15111865 -168.6875 42.75 C-167.78 43.306875 -166.8725 43.86375 -165.9375 44.4375 C-159.41200721 51.14425648 -156.50835872 58.34282667 -156.5 67.5625 C-156.48775391 68.26181641 -156.47550781 68.96113281 -156.46289062 69.68164062 C-156.45316815 73.14608349 -156.65273537 75.66641917 -157.9921875 78.88671875 C-158.22164062 79.83160156 -158.45109375 80.77648437 -158.6875 81.75 C-157.20433125 84.13831457 -155.91899511 85.76651128 -154 87.75 C-152.96626311 88.8896763 -151.93509032 90.03168264 -150.90625 91.17578125 C-150.37128906 91.76182129 -149.83632813 92.34786133 -149.28515625 92.95166016 C-146.71916375 95.83997017 -144.36210544 98.88198612 -142 101.9375 C-141.09409525 103.10052942 -140.18785144 104.26329483 -139.28125 105.42578125 C-138.848125 105.98217285 -138.415 106.53856445 -137.96875 107.11181641 C-134.91181615 111.02035797 -131.79696377 114.88321698 -128.6875 118.75 C-127.92566406 118.47736328 -127.92566406 118.47736328 -127.1484375 118.19921875 C-124.6875 117.75 -124.6875 117.75 -121.2890625 118.14453125 C-113.69611529 119.02374972 -113.69611529 119.02374972 -106.68603516 116.50927734 C-102.15575807 112.7477046 -98.42479507 108.27631122 -94.6875 103.75 C-89.97504229 98.25769008 -85.1042136 92.93819489 -80.125 87.6875 C-78.70937522 86.18904786 -77.29401555 84.69034522 -75.87890625 83.19140625 C-75.17523926 82.44648926 -74.47157227 81.70157227 -73.74658203 80.93408203 C-70.67393009 77.67489964 -67.61683064 74.40134528 -64.5625 71.125 C-63.72066162 70.22237427 -63.72066162 70.22237427 -62.86181641 69.30151367 C-60.49682406 66.76516966 -58.13273549 64.22798506 -55.76904297 61.69042969 C-54.4720528 60.29814386 -53.17485551 58.90605094 -51.87744141 57.51416016 C-50.65657812 56.20439135 -49.43617522 54.8941932 -48.21630859 53.58349609 C-47.39187256 52.69911865 -47.39187256 52.69911865 -46.55078125 51.796875 C-46.06907471 51.27963867 -45.58736816 50.76240234 -45.09106445 50.22949219 C-43.6875 48.75 -43.6875 48.75 -41.99682617 47.20800781 C-41.56474854 46.72686523 -41.1326709 46.24572266 -40.6875 45.75 C-40.90117541 43.04344476 -41.56108431 41.01971897 -42.7109375 38.56640625 C-45.0074679 31.94321256 -44.82277026 23.33220737 -42.70703125 16.65625 C-41.5119081 14.21452148 -40.21365096 11.99695696 -38.6875 9.75 C-38.130625 8.8425 -37.57375 7.935 -37 7 C-27.41092884 -2.32990707 -12.34699777 -6.08024362 0 0 Z M-22.6875 23.75 C-23.38597125 26.5896864 -23.38597125 28.9103136 -22.6875 31.75 C-20.69828114 34.7338283 -19.30247432 36.35276841 -15.75 37.2265625 C-11.82686508 37.50890933 -10.01637629 36.96925086 -6.6875 34.75 C-4.46824914 31.42112371 -3.92859067 29.61063492 -4.2109375 25.6875 C-5.08473159 22.13502568 -6.7036717 20.73921886 -9.6875 18.75 C-15.50413203 17.31929615 -19.29564906 18.66222359 -22.6875 23.75 Z M-195.6875 63.75 C-196.38597125 66.5896864 -196.38597125 68.9103136 -195.6875 71.75 C-193.69828114 74.7338283 -192.30247432 76.35276841 -188.75 77.2265625 C-184.82686508 77.50890933 -183.01637629 76.96925086 -179.6875 74.75 C-177.46824914 71.42112371 -176.92859067 69.61063492 -177.2109375 65.6875 C-178.08473159 62.13502568 -179.7036717 60.73921886 -182.6875 58.75 C-188.50413203 57.31929615 -192.29564906 58.66222359 -195.6875 63.75 Z M-271.6875 143.75 C-272.38597125 146.5896864 -272.38597125 148.9103136 -271.6875 151.75 C-269.69828114 154.7338283 -268.30247432 156.35276841 -264.75 157.2265625 C-260.82686508 157.50890933 -259.01637629 156.96925086 -255.6875 154.75 C-253.46824914 151.42112371 -252.92859067 149.61063492 -253.2109375 145.6875 C-254.08473159 142.13502568 -255.7036717 140.73921886 -258.6875 138.75 C-264.50413203 137.31929615 -268.29564906 138.66222359 -271.6875 143.75 Z M-125.6875 143.75 C-126.38597125 146.5896864 -126.38597125 148.9103136 -125.6875 151.75 C-123.69828114 154.7338283 -122.30247432 156.35276841 -118.75 157.2265625 C-114.82686508 157.50890933 -113.01637629 156.96925086 -109.6875 154.75 C-107.46824914 151.42112371 -106.92859067 149.61063492 -107.2109375 145.6875 C-108.08473159 142.13502568 -109.7036717 140.73921886 -112.6875 138.75 C-118.50413203 137.31929615 -122.29564906 138.66222359 -125.6875 143.75 Z " fill="#000000" transform="translate(452.6875,268.25)"/>
<path d="M0 0 C0.66227978 -0.00779995 1.32455956 -0.01559991 2.00690842 -0.02363622 C4.21904408 -0.04352972 6.42945415 -0.02780467 8.64160156 -0.01205444 C10.23027549 -0.01883184 11.81894157 -0.02773567 13.40759277 -0.03860474 C17.71760841 -0.06139049 22.02702534 -0.05256497 26.33705139 -0.03670931 C30.84841521 -0.02404647 35.35972791 -0.03579148 39.87109375 -0.04364014 C47.44703369 -0.05273559 55.02272988 -0.04075156 62.59863281 -0.01693726 C71.35626636 0.01027391 80.1133179 0.00145967 88.87093735 -0.02606928 C96.39127457 -0.04876236 103.91143663 -0.05195949 111.43179703 -0.03887594 C115.92284942 -0.03108249 120.41362829 -0.03003682 124.90466309 -0.04655838 C129.1270928 -0.06100688 133.3487725 -0.05097512 137.57112122 -0.0220871 C139.12029271 -0.01547822 140.66952738 -0.01737069 142.21867371 -0.02840042 C144.33478411 -0.0420773 146.44849545 -0.02492054 148.56445312 0 C149.74799377 0.00188513 150.93153442 0.00377026 152.15093994 0.00571251 C156.21053154 0.82145329 157.70981 2.46242329 160.28222656 5.63491821 C160.94628906 8.13491821 160.94628906 8.13491821 160.90722656 10.63491821 C160.92011719 11.45991821 160.93300781 12.28491821 160.94628906 13.13491821 C159.97871495 16.77755017 158.16061838 18.25145694 155.28222656 20.63491821 C152.15093994 21.26412392 152.15093994 21.26412392 148.56445312 21.26983643 C147.90217335 21.27763638 147.23989357 21.28543633 146.55754471 21.29347265 C144.34540905 21.31336615 142.13499898 21.29764109 139.92285156 21.28189087 C138.33417763 21.28866827 136.74551156 21.29757209 135.15686035 21.30844116 C130.84684471 21.33122691 126.53742778 21.3224014 122.22740173 21.30654573 C117.71603792 21.2938829 113.20472521 21.30562791 108.69335938 21.31347656 C101.11741944 21.32257202 93.54172324 21.31058799 85.96582031 21.28677368 C77.20818676 21.25956252 68.45113522 21.26837676 59.69351578 21.29590571 C52.17317855 21.31859879 44.6530165 21.32179592 37.1326561 21.30871236 C32.6416037 21.30091891 28.15082484 21.29987325 23.65979004 21.31639481 C19.43736033 21.33084331 15.21568063 21.32081155 10.99333191 21.29192352 C9.44416041 21.28531464 7.89492575 21.28720711 6.34577942 21.29823685 C4.22966902 21.31191373 2.11595767 21.29475697 0 21.26983643 C-1.18354065 21.2679513 -2.3670813 21.26606617 -3.58648682 21.26412392 C-7.64607841 20.44838314 -9.14535688 18.80741314 -11.71777344 15.63491821 C-12.38183594 13.13491821 -12.38183594 13.13491821 -12.34277344 10.63491821 C-12.35566406 9.80991821 -12.36855469 8.98491821 -12.38183594 8.13491821 C-10.67852746 1.72246278 -6.12001459 0.00974788 0 0 Z " fill="#000000" transform="translate(291.7177734375,199.36508178710938)"/>
<path d="M0 0 C0.66227978 -0.00779995 1.32455956 -0.01559991 2.00690842 -0.02363622 C4.21904408 -0.04352972 6.42945415 -0.02780467 8.64160156 -0.01205444 C10.23027549 -0.01883184 11.81894157 -0.02773567 13.40759277 -0.03860474 C17.71760841 -0.06139049 22.02702534 -0.05256497 26.33705139 -0.03670931 C30.84841521 -0.02404647 35.35972791 -0.03579148 39.87109375 -0.04364014 C47.44703369 -0.05273559 55.02272988 -0.04075156 62.59863281 -0.01693726 C71.35626636 0.01027391 80.1133179 0.00145967 88.87093735 -0.02606928 C96.39127457 -0.04876236 103.91143663 -0.05195949 111.43179703 -0.03887594 C115.92284942 -0.03108249 120.41362829 -0.03003682 124.90466309 -0.04655838 C129.1270928 -0.06100688 133.3487725 -0.05097512 137.57112122 -0.0220871 C139.12029271 -0.01547822 140.66952738 -0.01737069 142.21867371 -0.02840042 C144.33478411 -0.0420773 146.44849545 -0.02492054 148.56445312 0 C149.74799377 0.00188513 150.93153442 0.00377026 152.15093994 0.00571251 C156.21053154 0.82145329 157.70981 2.46242329 160.28222656 5.63491821 C160.94628906 8.13491821 160.94628906 8.13491821 160.90722656 10.63491821 C160.92011719 11.45991821 160.93300781 12.28491821 160.94628906 13.13491821 C159.97871495 16.77755017 158.16061838 18.25145694 155.28222656 20.63491821 C152.15093994 21.26412392 152.15093994 21.26412392 148.56445312 21.26983643 C147.90217335 21.27763638 147.23989357 21.28543633 146.55754471 21.29347265 C144.34540905 21.31336615 142.13499898 21.29764109 139.92285156 21.28189087 C138.33417763 21.28866827 136.74551156 21.29757209 135.15686035 21.30844116 C130.84684471 21.33122691 126.53742778 21.3224014 122.22740173 21.30654573 C117.71603792 21.2938829 113.20472521 21.30562791 108.69335938 21.31347656 C101.11741944 21.32257202 93.54172324 21.31058799 85.96582031 21.28677368 C77.20818676 21.25956252 68.45113522 21.26837676 59.69351578 21.29590571 C52.17317855 21.31859879 44.6530165 21.32179592 37.1326561 21.30871236 C32.6416037 21.30091891 28.15082484 21.29987325 23.65979004 21.31639481 C19.43736033 21.33084331 15.21568063 21.32081155 10.99333191 21.29192352 C9.44416041 21.28531464 7.89492575 21.28720711 6.34577942 21.29823685 C4.22966902 21.31191373 2.11595767 21.29475697 0 21.26983643 C-1.18354065 21.2679513 -2.3670813 21.26606617 -3.58648682 21.26412392 C-7.64607841 20.44838314 -9.14535688 18.80741314 -11.71777344 15.63491821 C-12.38183594 13.13491821 -12.38183594 13.13491821 -12.34277344 10.63491821 C-12.35566406 9.80991821 -12.36855469 8.98491821 -12.38183594 8.13491821 C-10.67852746 1.72246278 -6.12001459 0.00974788 0 0 Z " fill="#000000" transform="translate(291.7177734375,159.36508178710938)"/>
<path d="M0 0 C1.12411285 -0.0087616 2.24822571 -0.01752319 3.40640259 -0.02655029 C7.12158829 -0.04855387 10.83558347 -0.0339866 14.55078125 -0.01708984 C17.13240792 -0.02045766 19.71403305 -0.02530999 22.2956543 -0.03158569 C27.70606036 -0.03895841 33.11601913 -0.02871523 38.52636719 -0.00488281 C44.77562809 0.02232764 51.02407333 0.01351288 57.27331448 -0.01401484 C63.2924823 -0.03946475 69.31125201 -0.0367384 75.33047485 -0.02210617 C77.88856114 -0.01876906 80.44666822 -0.02286985 83.00473022 -0.03450394 C86.57923645 -0.04719283 90.15217327 -0.02785962 93.7265625 0 C94.78541656 -0.01012115 95.84427063 -0.02024231 96.93521118 -0.03067017 C104.10374375 0.07291814 104.10374375 0.07291814 108.01782227 3.03115845 C110.01564859 5.86294313 110.54185141 7.21848223 110.48828125 10.64697266 C110.50761719 11.88447266 110.50761719 11.88447266 110.52734375 13.14697266 C109.51464589 16.95948224 108.01895965 18.26192724 104.86328125 20.64697266 C101.15629385 21.39838653 97.49840647 21.32999883 93.7265625 21.29394531 C92.60244965 21.30270691 91.47833679 21.31146851 90.32015991 21.32049561 C86.60497421 21.34249919 82.89097903 21.32793191 79.17578125 21.31103516 C76.59415458 21.31440297 74.01252945 21.3192553 71.4309082 21.32553101 C66.02050214 21.33290373 60.61054337 21.32266055 55.20019531 21.29882812 C48.95093441 21.27161768 42.70248917 21.28043243 36.45324802 21.30796015 C30.4340802 21.33341006 24.41531049 21.33068371 18.39608765 21.31605148 C15.83800136 21.31271438 13.27989428 21.31681516 10.72183228 21.32844925 C7.14732605 21.34113814 3.57438923 21.32180493 0 21.29394531 C-1.05885406 21.30406647 -2.11770813 21.31418762 -3.20864868 21.32461548 C-10.37718125 21.22102718 -10.37718125 21.22102718 -14.29125977 18.26278687 C-16.28908609 15.43100218 -16.81528891 14.07546308 -16.76171875 10.64697266 C-16.77460938 9.82197266 -16.7875 8.99697266 -16.80078125 8.14697266 C-14.50684067 -0.48903893 -7.41202808 -0.07084856 0 0 Z " fill="#000000" transform="translate(262.13671875,99.35302734375)"/>
<path d="M0 0 C1.12411285 -0.0087616 2.24822571 -0.01752319 3.40640259 -0.02655029 C7.12158829 -0.04855387 10.83558347 -0.0339866 14.55078125 -0.01708984 C17.13240792 -0.02045766 19.71403305 -0.02530999 22.2956543 -0.03158569 C27.70606036 -0.03895841 33.11601913 -0.02871523 38.52636719 -0.00488281 C44.77562809 0.02232764 51.02407333 0.01351288 57.27331448 -0.01401484 C63.2924823 -0.03946475 69.31125201 -0.0367384 75.33047485 -0.02210617 C77.88856114 -0.01876906 80.44666822 -0.02286985 83.00473022 -0.03450394 C86.57923645 -0.04719283 90.15217327 -0.02785962 93.7265625 0 C94.78541656 -0.01012115 95.84427063 -0.02024231 96.93521118 -0.03067017 C104.10374375 0.07291814 104.10374375 0.07291814 108.01782227 3.03115845 C110.01564859 5.86294313 110.54185141 7.21848223 110.48828125 10.64697266 C110.50761719 11.88447266 110.50761719 11.88447266 110.52734375 13.14697266 C109.51464589 16.95948224 108.01895965 18.26192724 104.86328125 20.64697266 C101.15629385 21.39838653 97.49840647 21.32999883 93.7265625 21.29394531 C92.60244965 21.30270691 91.47833679 21.31146851 90.32015991 21.32049561 C86.60497421 21.34249919 82.89097903 21.32793191 79.17578125 21.31103516 C76.59415458 21.31440297 74.01252945 21.3192553 71.4309082 21.32553101 C66.02050214 21.33290373 60.61054337 21.32266055 55.20019531 21.29882812 C48.95093441 21.27161768 42.70248917 21.28043243 36.45324802 21.30796015 C30.4340802 21.33341006 24.41531049 21.33068371 18.39608765 21.31605148 C15.83800136 21.31271438 13.27989428 21.31681516 10.72183228 21.32844925 C7.14732605 21.34113814 3.57438923 21.32180493 0 21.29394531 C-1.05885406 21.30406647 -2.11770813 21.31418762 -3.20864868 21.32461548 C-10.37718125 21.22102718 -10.37718125 21.22102718 -14.29125977 18.26278687 C-16.28908609 15.43100218 -16.81528891 14.07546308 -16.76171875 10.64697266 C-16.77460938 9.82197266 -16.7875 8.99697266 -16.80078125 8.14697266 C-14.50684067 -0.48903893 -7.41202808 -0.07084856 0 0 Z " fill="#000000" transform="translate(262.13671875,59.35302734375)"/>
<path d="M0 0 C0.825 -0.01289063 1.65 -0.02578125 2.5 -0.0390625 C6.18675829 0.94023267 7.68090196 2.63755079 10 5.625 C10.75 8.9375 10.75 8.9375 11 12.625 C11.91856465 22.39288625 14.83737203 31.83108815 21 39.625 C21.49113281 40.25792969 21.98226562 40.89085937 22.48828125 41.54296875 C30.95111372 51.91237037 42.73279668 57.91493981 56.01513672 59.43457031 C57.902947 59.61568864 59.79536479 59.74671965 61.6875 59.875 C65.86988746 60.82195565 67.41615593 62.24391036 70 65.625 C70.6640625 68.125 70.6640625 68.125 70.625 70.625 C70.64433594 71.8625 70.64433594 71.8625 70.6640625 73.125 C69.67594375 76.84497646 68.04899445 78.32005724 65 80.625 C62.16327305 81.14690864 60.06962379 81.34276992 57.25 81.25 C56.50919189 81.23525635 55.76838379 81.2205127 55.00512695 81.20532227 C36.89286518 80.42364926 21.70325202 72.28526301 9 59.625 C8.28972656 58.93792969 7.57945313 58.25085938 6.84765625 57.54296875 C-4.38311345 45.92418781 -10.19332057 29.54711055 -10.5625 13.5625 C-10.58948975 12.84795654 -10.61647949 12.13341309 -10.64428711 11.3972168 C-10.61566693 7.56892642 -10.0950149 5.75140822 -7.77734375 2.66796875 C-4.84013243 0.50740402 -3.58619015 -0.05603422 0 0 Z " fill="#000000" transform="translate(50,159.375)"/>
<path d="M0 0 C3.125 1.875 3.125 1.875 5 5 C5.98876625 10.02622846 5.7769173 13.70513784 3.125 18.125 C-1.29486216 20.7769173 -4.97377154 20.98876625 -10 20 C-13.125 18.125 -13.125 18.125 -15 15 C-15.98876625 9.97377154 -15.7769173 6.29486216 -13.125 1.875 C-8.70513784 -0.7769173 -5.02622846 -0.98876625 0 0 Z " fill="#000000" transform="translate(255,200)"/>
<path d="M0 0 C3.125 1.875 3.125 1.875 5 5 C5.98876625 10.02622846 5.7769173 13.70513784 3.125 18.125 C-1.29486216 20.7769173 -4.97377154 20.98876625 -10 20 C-13.125 18.125 -13.125 18.125 -15 15 C-15.98876625 9.97377154 -15.7769173 6.29486216 -13.125 1.875 C-8.70513784 -0.7769173 -5.02622846 -0.98876625 0 0 Z " fill="#000000" transform="translate(255,160)"/>
</svg>
