<?xml version="1.0" encoding="UTF-8"?>
<svg version="1.1" xmlns="http://www.w3.org/2000/svg" width="512" height="512">
<path d="M0 0 C1.10472153 -0.01583633 2.20944305 -0.03167267 3.34764099 -0.04798889 C4.53624222 -0.04302902 5.72484344 -0.03806915 6.94946289 -0.03295898 C8.78765343 -0.04225685 8.78765343 -0.04225685 10.66297913 -0.05174255 C13.254478 -0.05884634 15.84602245 -0.05565711 18.4375 -0.04296875 C22.40393078 -0.02911626 26.36799752 -0.06315548 30.33422852 -0.10131836 C32.85180722 -0.10226965 35.36938888 -0.10041022 37.88696289 -0.09545898 C39.07353989 -0.10871719 40.26011688 -0.1219754 41.48265076 -0.13563538 C49.71428691 -0.04251283 49.71428691 -0.04251283 53.58569336 2.85205078 C54.52566162 4.17934204 54.52566162 4.17934204 55.48461914 5.53344727 C56.01337646 6.13737305 56.54213379 6.74129883 57.08691406 7.36352539 C57.54171143 7.92491211 57.99650879 8.48629883 58.46508789 9.06469727 C59.24360107 10.02303467 59.24360107 10.02303467 60.0378418 11.00073242 C60.57715332 11.67152832 61.11646484 12.34232422 61.67211914 13.03344727 C62.52749268 14.09184814 62.52749268 14.09184814 63.40014648 15.17163086 C67.69267427 20.50215026 71.88803261 25.90126133 76.03930664 31.34204102 C78.57320705 34.65975857 81.15044877 37.94231319 83.73461914 41.22094727 C93.73912023 53.9234526 103.64583582 66.70222293 113.48461914 79.53344727 C114.17168945 79.37618164 114.85875977 79.21891602 115.56665039 79.05688477 C124.3256485 77.48565887 132.6201196 77.50011147 140.42993164 82.04516602 C145.78585466 85.92464638 149.52500594 91.28162262 150.99243164 97.78344727 C152.21124751 106.08176809 150.31341615 113.63516583 145.48461914 120.53344727 C146.05422363 120.80809814 146.62382812 121.08274902 147.21069336 121.36572266 C149.51010773 122.54653637 151.67203228 123.85327483 153.86743164 125.21704102 C159.61450388 128.67813051 165.50404566 131.78337291 171.54272461 134.70507812 C172.75755575 135.30074043 173.96536348 135.9109376 175.16577148 136.53515625 C181.7372227 139.94571268 186.64592666 142.32673735 194.01977539 140.40063477 C194.94153564 140.06789551 195.8632959 139.73515625 196.81298828 139.39233398 C204.31031286 136.98206369 211.7512966 139.76871211 218.75805664 142.54516602 C222.90431437 144.04803594 227.14287368 144.81767144 231.48461914 145.53344727 C231.58645508 144.79223633 231.68829102 144.05102539 231.79321289 143.28735352 C233.10421912 138.06554905 237.0747454 134.37908361 241.26977539 131.16625977 C245.53230468 128.68657181 249.02197921 128.41440091 253.92211914 128.34594727 C258.86759878 128.0617243 261.4559429 127.43153527 265.04711914 123.97094727 C266.56656769 122.19208067 268.03988303 120.37350918 269.48461914 118.53344727 C270.59140253 117.24067548 271.69957355 115.9490909 272.80883789 114.65844727 C273.95499827 113.26608792 275.09693221 111.87023874 276.23461914 110.47094727 C277.07875366 109.48082642 277.07875366 109.48082642 277.93994141 108.47070312 C279.46499233 106.50345318 280.62446526 104.87182113 281.48461914 102.53344727 C281.13931229 100.20508491 280.46498904 98.48394585 279.40478516 96.38891602 C276.8094977 91.15564866 277.19789381 85.35224837 278.63696289 79.83422852 C281.47006277 72.14438598 286.12372369 67.04909882 293.48461914 63.53344727 C296.63450835 62.4834842 298.68500687 62.73350367 301.92944336 63.05810547 C307.23581221 63.46614651 311.04896542 63.61833379 315.41040039 60.32250977 C317.56706398 57.70149277 319.50284326 55.0881593 321.34887695 52.24780273 C323.15814829 49.5167831 325.20912821 46.9812796 327.23461914 44.40844727 C328.06591334 43.32263459 328.89527068 42.23533692 329.72290039 41.14672852 C334.68812073 34.63547343 339.73709153 28.18853316 344.77270508 21.73168945 C346.40176988 19.63983271 348.02573514 17.54411468 349.64868164 15.44750977 C350.6146739 14.20520284 351.58081114 12.96300862 352.54711914 11.72094727 C352.97565186 11.16479736 353.40418457 10.60864746 353.84570312 10.03564453 C355.03301292 8.51452838 356.25814463 7.02316508 357.48461914 5.53344727 C358.15186508 4.66128067 358.81911102 3.78911407 359.50657654 2.89051819 C363.77745468 -0.48981045 367.23214522 -0.16305227 372.53564453 -0.09765625 C373.54432083 -0.10481155 374.55299713 -0.11196686 375.59223938 -0.11933899 C378.92271358 -0.13623274 382.25184318 -0.11681974 385.58227539 -0.09545898 C387.89725353 -0.09628755 390.21223162 -0.09874646 392.52720642 -0.10276794 C397.37687912 -0.10562634 402.22609009 -0.09091876 407.07568359 -0.06347656 C413.29585274 -0.02937532 419.51519717 -0.03541827 425.73540592 -0.05413914 C430.51463206 -0.06470032 435.29366583 -0.05577953 440.07287407 -0.04075432 C442.36662665 -0.03556689 444.66039928 -0.03606108 446.95414925 -0.04229927 C450.15753623 -0.04774137 453.35973647 -0.02740807 456.56298828 0 C457.51322876 -0.00652588 458.46346924 -0.01305176 459.44250488 -0.01977539 C465.78554601 0.07264143 465.78554601 0.07264143 469.06443787 2.23397827 C470.75657564 4.97378228 471.03532041 6.64733383 471.12915039 9.85839844 C471.16758057 10.92438766 471.20601074 11.99037689 471.24560547 13.08866882 C471.26260498 14.2396254 471.27960449 15.39058197 471.29711914 16.57641602 C471.31991943 17.77341629 471.34271973 18.97041656 471.36621094 20.20368958 C471.40401894 22.74469891 471.4301503 25.28590455 471.44555664 27.82714844 C471.48405322 31.66453562 471.60790463 35.49302769 471.73461914 39.32836914 C471.99875898 54.6393024 470.42380102 64.51439498 459.92230225 75.94577026 C458.06046877 78.00184937 456.49433014 80.21344591 454.92602539 82.49829102 C453.96734429 83.82320082 453.00773492 85.14743952 452.04711914 86.47094727 C450.95856404 87.97484379 449.87002279 89.47875035 448.78149414 90.98266602 C448.23944336 91.73080566 447.69739258 92.47894531 447.13891602 93.24975586 C436.63675605 107.71241394 436.63675605 107.71241394 426.24853516 122.25683594 C423.9244078 125.54438157 421.55060033 128.78545043 419.12915039 132.00219727 C417.99759329 133.53341277 416.86608224 135.0646623 415.73461914 136.59594727 C415.18410889 137.31081299 414.63359863 138.02567871 414.06640625 138.76220703 C412.6845395 140.65203713 411.45776506 142.40397155 410.48461914 144.53344727 C410.89984885 147.2877519 410.89984885 147.2877519 412.48461914 149.53344727 C415.45704777 157.32461482 416.57646478 163.9761406 413.57446289 171.95141602 C410.33362768 178.50998761 405.66287885 182.43364042 399.19165039 185.68579102 C395.75395203 186.76224202 392.76715962 186.72564428 389.17211914 186.65844727 C387.91786133 186.64040039 386.66360352 186.62235352 385.37133789 186.60375977 C384.4187207 186.58055664 383.46610352 186.55735352 382.48461914 186.53344727 C378.24968309 194.63305173 377.20147802 202.49725245 376.48461914 211.53344727 C377.70149414 211.78094727 378.91836914 212.02844727 380.17211914 212.28344727 C383.13362398 212.9103693 385.87618256 213.67386351 388.73071289 214.69750977 C394.61227311 217.09059483 394.61227311 217.09059483 400.73071289 216.93579102 C402.80401059 215.74375141 402.80401059 215.74375141 405.48461914 213.53344727 C412.02074318 211.35473925 419.41020723 211.82412273 425.67602539 214.57250977 C431.11311975 217.46133312 433.24089375 219.71546832 435.28149414 225.38110352 C437.63312577 230.21284489 439.97265653 231.65892328 444.95727539 233.55688477 C447.4835742 234.38087945 449.99887273 235.16335347 452.54711914 235.90844727 C455.08562751 236.6906528 457.61485756 237.49677984 460.14477539 238.30688477 C461.26505127 238.64123535 462.38532715 238.97558594 463.53955078 239.32006836 C466.78489221 240.65716087 468.26190419 241.84205857 470.48461914 244.53344727 C470.9879837 246.8885498 470.9879837 246.8885498 470.99255371 249.54321289 C471.00947266 251.05733765 471.00947266 251.05733765 471.0267334 252.60205078 C471.01458801 254.25418579 471.01458801 254.25418579 471.00219727 255.93969727 C471.01271118 257.68657837 471.01271118 257.68657837 471.0234375 259.46875 C471.04106346 263.3238906 471.02937755 267.17829901 471.01586914 271.03344727 C471.01856272 273.7085868 471.02243767 276.38370396 471.02746582 279.05883789 C471.03474111 284.66764277 471.02515785 290.27623689 471.00610352 295.88500977 C470.98433471 302.36762633 470.99138619 308.84973968 471.01340914 315.33234406 C471.03156673 320.90021316 471.0341198 326.46793086 471.02365446 332.03582001 C471.01742136 335.36040397 471.01815112 338.68469978 471.02980042 342.00927734 C471.03993662 345.71559884 471.02450399 349.42094834 471.00219727 353.12719727 C471.01029419 354.22862061 471.01839111 355.33004395 471.0267334 356.46484375 C471.0154541 357.47426025 471.0041748 358.48367676 470.99255371 359.52368164 C470.99029156 360.83773987 470.99029156 360.83773987 470.9879837 362.17834473 C470.31821337 365.31201349 468.92537614 366.52885737 466.48461914 368.53344727 C459.90765946 370.18561466 452.78895446 367.48100516 446.54711914 365.53344727 C444.68444961 364.9689249 442.82119621 364.40632432 440.95727539 363.84594727 C440.14524658 363.59458008 439.33321777 363.34321289 438.49658203 363.08422852 C436.51078009 362.4454345 436.51078009 362.4454345 434.48461914 362.53344727 C433.92774414 363.27594727 433.37086914 364.01844727 432.79711914 364.78344727 C428.71260095 369.64071214 423.51642273 372.17689321 417.18774414 372.73657227 C408.64572909 372.89979548 402.38275648 371.1430811 396.02758789 365.26782227 C391.29488877 359.94802883 390.40245786 355.55900204 390.48461914 348.53344727 C389.58267822 348.31720703 388.6807373 348.1009668 387.75146484 347.87817383 C374.98454386 344.7737592 362.38975511 341.1116472 349.77636719 337.44067383 C346.98606054 336.62972248 344.19440921 335.82354079 341.40258789 335.01782227 C340.54956589 334.76788513 339.69654388 334.517948 338.81767273 334.26043701 C338.02867081 334.03309875 337.23966888 333.8057605 336.42675781 333.5715332 C335.73555344 333.37041931 335.04434906 333.16930542 334.3321991 332.96209717 C332.3136647 332.4204456 332.3136647 332.4204456 329.48461914 332.53344727 C326.80235724 347.37703252 326.84358485 362.49628609 326.48461914 377.53344727 C327.26562988 377.8329126 328.04664063 378.13237793 328.85131836 378.44091797 C334.27049463 380.68927823 338.30855721 384.73260243 341.48461914 389.59594727 C343.81780475 396.33626125 343.86218696 405.42288183 340.98461914 411.97094727 C338.21276593 416.56430401 333.64763516 421.6638359 328.35961914 423.11767578 C327.74086914 423.25488037 327.12211914 423.39208496 326.48461914 423.53344727 C326.49350159 424.18855286 326.50238403 424.84365845 326.51153564 425.51861572 C326.59996964 432.33157636 326.66033725 439.1443742 326.7043457 445.95776367 C326.72447186 448.5011253 326.75177551 451.0444406 326.78637695 453.58764648 C326.83484884 457.24157131 326.85757831 460.89488482 326.87524414 464.54907227 C326.89588928 465.68773743 326.91653442 466.82640259 326.93780518 467.99957275 C326.9381073 469.06037048 326.93840942 470.12116821 326.9387207 471.21411133 C326.94760315 472.14676819 326.9564856 473.07942505 326.96563721 474.04034424 C326.32571329 477.35705177 325.07127351 478.40805287 322.48461914 480.53344727 C320.1295166 481.03681183 320.1295166 481.03681183 317.47485352 481.04138184 C315.96072876 481.05830078 315.96072876 481.05830078 314.41601562 481.07556152 C313.31459229 481.0674646 312.21316895 481.05936768 311.07836914 481.05102539 C309.91378174 481.05803467 308.74919434 481.06504395 307.54931641 481.07226562 C303.69417581 481.08989159 299.8397674 481.07820567 295.98461914 481.06469727 C293.30947961 481.06739084 290.63436245 481.0712658 287.95922852 481.07629395 C282.35042364 481.08356923 276.74182951 481.07398598 271.13305664 481.05493164 C264.65044007 481.03316284 258.16832672 481.04021431 251.68572235 481.06223726 C246.11785325 481.08039486 240.55013555 481.08294792 234.9822464 481.07248259 C231.65766244 481.06624949 228.33336662 481.06697925 225.00878906 481.07862854 C221.30246757 481.08876474 217.59711807 481.07333211 213.89086914 481.05102539 C212.7894458 481.05912231 211.68802246 481.06721924 210.55322266 481.07556152 C209.54380615 481.06428223 208.53438965 481.05300293 207.49438477 481.04138184 C206.61834595 481.03987373 205.74230713 481.03836563 204.83972168 481.03681183 C201.69411311 480.36448956 200.47963188 479.00151254 198.48461914 476.53344727 C198.00360107 474.04034424 198.00360107 474.04034424 198.03051758 471.21411133 C198.0308197 470.1533136 198.03112183 469.09251587 198.03143311 467.99957275 C198.06240082 466.29157501 198.06240082 466.29157501 198.09399414 464.54907227 C198.09965393 463.37834167 198.10531372 462.20761108 198.11114502 461.00140381 C198.13353789 457.26166927 198.18374234 453.5228923 198.23461914 449.78344727 C198.25468025 447.24830485 198.2729317 444.71314742 198.28930664 442.17797852 C198.33341236 435.96280797 198.4003546 429.74819603 198.48461914 423.53344727 C197.53611084 423.23398193 196.58760254 422.9345166 195.61035156 422.62597656 C189.94905646 420.6471985 186.68930091 416.43762168 183.54711914 411.47094727 C181.15563745 404.93522092 181.21646245 396.39167735 184.00805664 390.09985352 C184.49532227 389.25293945 184.98258789 388.40602539 185.48461914 387.53344727 C183.56830706 387.4778124 181.65147989 387.43994498 179.73461914 387.40844727 C178.13360352 387.37364258 178.13360352 387.37364258 176.50024414 387.33813477 C165.54247815 387.63793488 155.68065434 390.97645281 145.54711914 394.84594727 C144.26688762 395.32544507 142.98628914 395.8039643 141.70532227 396.28149414 C136.70676418 398.15125688 131.71692009 400.04189942 126.75366211 402.00366211 C125.59108887 402.4607959 124.42851562 402.91792969 123.23071289 403.38891602 C122.19487061 403.80165771 121.15902832 404.21439941 120.09179688 404.63964844 C117.48461914 405.53344727 117.48461914 405.53344727 114.48461914 405.53344727 C114.38665039 406.18571289 114.28868164 406.83797852 114.18774414 407.51000977 C112.76149472 415.84619173 109.7703219 420.67496047 103.46118164 426.23657227 C97.12428462 430.39437822 89.78064473 430.27993466 82.48461914 429.53344727 C78.55009557 428.2560828 75.43652733 426.48535545 72.48461914 423.53344727 C68.44280815 423.90617102 64.87642578 424.98426633 61.09692383 426.41943359 C60.06855408 426.80686234 59.04018433 427.19429108 57.98065186 427.59346008 C56.33519379 428.22310921 56.33519379 428.22310921 54.65649414 428.86547852 C53.51231018 429.29849777 52.36812622 429.73151703 51.18927002 430.17765808 C47.53573278 431.56191454 43.88520536 432.95392959 40.23461914 434.34594727 C37.79339766 435.27156493 35.35199327 436.19670035 32.91040039 437.12133789 C28.40249343 438.83117744 23.89485982 440.54170574 19.38989258 442.25927734 C18.39517944 442.63847321 17.40046631 443.01766907 16.37561035 443.40835571 C12.79524215 444.80173318 9.24989951 446.27421624 5.71368408 447.77592468 C2.08353787 449.00958894 -1.78120832 449.52147735 -5.51538086 448.53344727 C-8.11873744 446.44189034 -9.37667995 445.25124346 -10.01874542 441.9284668 C-10.02100758 440.43742432 -10.02100758 440.43742432 -10.02331543 438.91625977 C-10.03459473 437.7722168 -10.04587402 436.62817383 -10.05749512 435.44946289 C-10.04939819 434.19842773 -10.04130127 432.94739258 -10.03295898 431.65844727 C-10.03838054 430.32445512 -10.0455034 428.99046896 -10.05419922 427.65649414 C-10.07243199 424.03659379 -10.0653656 420.41714952 -10.05268288 416.79724121 C-10.04255481 413.00877657 -10.05194801 409.22035094 -10.05822754 405.43188477 C-10.06550454 399.06983428 -10.05591498 392.70796955 -10.03686523 386.34594727 C-10.01509622 378.99084589 -10.02214757 371.63618804 -10.04417086 364.28109741 C-10.06232348 357.96589359 -10.06488391 351.65082328 -10.05441618 345.33560181 C-10.04818042 341.56391124 -10.04734767 337.79242913 -10.06056213 334.02075195 C-10.07211821 330.47472374 -10.0641003 326.92926724 -10.04098511 323.38330078 C-10.033174 321.46135239 -10.04505608 319.53935565 -10.05749512 317.61743164 C-10.04621582 316.47338867 -10.03493652 315.3293457 -10.02331543 314.15063477 C-10.02180733 313.15660645 -10.02029922 312.16257812 -10.01874542 311.13842773 C-9.37133678 307.78799946 -8.15877661 306.62938496 -5.51538086 304.53344727 C-2.26318359 303.36767578 -2.26318359 303.36767578 1.55102539 302.41235352 C2.93780704 302.03148 4.32385652 301.64793235 5.70922852 301.26196289 C7.87884698 300.66989157 10.0474751 300.09586113 12.23339844 299.56689453 C17.02075878 298.39071989 21.28508107 297.16605805 25.48461914 294.53344727 C27.64219852 290.24008562 28.0338628 286.2623262 28.48461914 281.53344727 C31.46186922 275.68527746 36.1908131 270.87098729 42.31274414 268.38500977 C48.97387832 266.59667571 56.63012908 266.23699471 62.98461914 269.22094727 C66.31325353 271.19710494 68.89721711 273.65034215 71.48461914 276.53344727 C72.08274414 277.13157227 72.68086914 277.72969727 73.29711914 278.34594727 C73.68899414 278.73782227 74.08086914 279.12969727 74.48461914 279.53344727 C76.13461914 278.87344727 77.78461914 278.21344727 79.48461914 277.53344727 C78.84395508 276.67106445 78.20329102 275.80868164 77.54321289 274.92016602 C68.97004793 262.98794419 64.74185835 250.60002393 60.30102539 236.70532227 C59.91696533 235.5190625 59.53290527 234.33280273 59.13720703 233.1105957 C58.38977111 230.79086872 57.65751904 228.46617295 56.94335938 226.13598633 C54.76177662 219.31645275 52.01687192 213.68175013 47.95532227 207.77563477 C46.48461914 205.53344727 46.48461914 205.53344727 45.48461914 202.53344727 C44.25098633 202.62045898 44.25098633 202.62045898 42.99243164 202.70922852 C34.27190279 203.06167483 27.52414958 202.06295294 20.86352539 196.07641602 C15.48183713 190.0240129 13.31832255 183.52756195 13.48461914 175.53344727 C13.98099135 173.92154383 14.50210486 172.31706051 15.04711914 170.72094727 C15.85012954 167.14893551 15.68689681 165.89893186 13.88696289 162.64672852 C11.7223857 159.84157726 9.48851502 157.15686676 7.15698242 154.49194336 C3.93829108 150.72255037 0.95153938 146.76765813 -2.07788086 142.84594727 C-3.00697266 141.6596875 -3.00697266 141.6596875 -3.95483398 140.44946289 C-4.53297852 139.71018555 -5.11112305 138.9709082 -5.70678711 138.20922852 C-6.22442627 137.54834229 -6.74206543 136.88745605 -7.27539062 136.20654297 C-9.5317052 133.16213978 -9.6454694 131.20547934 -9.66255188 127.46047974 C-9.66970718 126.38649933 -9.67686249 125.31251892 -9.68423462 124.20599365 C-9.68692352 123.02257385 -9.68961243 121.83915405 -9.69238281 120.61987305 C-9.70223961 118.75638718 -9.70223961 118.75638718 -9.71229553 116.85525513 C-9.72865091 113.4419782 -9.74025739 110.0287633 -9.74850106 106.61546183 C-9.7536502 104.48368874 -9.75972593 102.35192001 -9.76601219 100.22014999 C-9.78506355 93.55235976 -9.79929557 86.88458061 -9.80762416 80.21676838 C-9.81740163 72.51588989 -9.84373431 64.81529846 -9.88412505 57.11452115 C-9.91426363 51.1645712 -9.92909081 45.21470365 -9.93240517 39.26467884 C-9.934758 35.70976144 -9.94374807 32.15515072 -9.96886635 28.60031509 C-9.99642992 24.63538622 -9.99232282 20.67083663 -9.98535156 16.70581055 C-9.99816162 15.52643921 -10.01097168 14.34706787 -10.02416992 13.13195801 C-10.0172261 12.05233795 -10.01028229 10.9727179 -10.00312805 9.86038208 C-10.00551641 8.92275087 -10.00790476 7.98511967 -10.01036549 7.01907539 C-8.90225664 1.4545662 -5.21969712 0.03332545 0 0 Z M6.48461914 16.53344727 C6.20295518 30.48561408 5.99284282 44.43733355 5.86287308 58.39177036 C5.80046555 64.87286604 5.71593926 71.35204092 5.5793457 77.83203125 C5.44815113 84.09569359 5.37704257 90.35751877 5.34609222 96.62244987 C5.32406146 99.00230751 5.28103911 101.38207395 5.21585846 103.76114082 C4.88157438 116.4778607 4.79530105 126.20934069 13.81404495 135.88057041 C14.84973468 136.92271759 15.8961759 137.95430721 16.95388031 138.97410393 C19.51088929 141.57889505 21.60184119 144.51742316 23.73461914 147.47094727 C24.82516602 148.93854492 24.82516602 148.93854492 25.93774414 150.43579102 C26.44821289 151.12801758 26.95868164 151.82024414 27.48461914 152.53344727 C31.94496208 151.11424724 34.81309472 148.66728 38.10961914 145.47094727 C42.85447416 140.99075723 47.75080112 136.80766751 52.83618164 132.71313477 C55.45737033 130.55587328 57.97616195 128.32033726 60.48461914 126.03344727 C64.78453705 122.11453474 69.24381461 118.44173857 73.76586914 114.78344727 C77.25381055 111.89687506 80.58413896 108.85612596 83.92602539 105.80297852 C87.55151345 102.58708758 91.33474907 99.57989139 95.13696289 96.57641602 C97.29547554 94.69804311 98.88046161 92.8893882 100.48461914 90.53344727 C99.69700195 89.57567383 98.90938477 88.61790039 98.09790039 87.63110352 C91.7049208 79.82627484 85.4566848 71.93732894 79.36499023 63.89526367 C75.64665829 59.0048367 71.82175232 54.21769395 67.92211914 49.47094727 C62.53086664 42.90376134 57.39075122 36.17852563 52.33618164 29.34985352 C51.88953659 28.77901031 51.44289154 28.20816711 50.98271179 27.62002563 C49.48461914 25.53344727 49.48461914 25.53344727 48.3230896 23.21177673 C46.63808213 20.27031611 45.23924761 18.54536894 42.48461914 16.53344727 C36.52943409 15.00471101 30.12543873 15.69100535 24.04711914 15.97094727 C22.34475079 16.01613429 20.64226751 16.05719154 18.93969727 16.09399414 C14.7851507 16.19276006 10.63615314 16.34778505 6.48461914 16.53344727 Z M360.48461914 29.53344727 C359.55067437 30.78908596 358.59319793 32.02831011 357.59399414 33.23266602 C347.07705354 46.5529633 336.59109822 59.89772152 326.48461914 73.53344727 C330.29155695 77.44113579 334.28387717 81.04342239 338.42211914 84.59594727 C339.07817139 85.16176514 339.73422363 85.72758301 340.41015625 86.31054688 C342.43297653 88.05385546 344.45837812 89.79411641 346.48461914 91.53344727 C347.09080078 92.05422852 347.69698242 92.57500977 348.3215332 93.11157227 C351.79473552 96.09464365 355.27184391 99.07312364 358.75073242 102.04956055 C361.07958233 104.04262585 363.40686132 106.03751983 365.73388672 108.03271484 C366.89616288 109.02902101 368.05875794 110.02495527 369.22167969 111.02050781 C372.2195959 113.58756561 375.21186015 116.16080682 378.19555664 118.74438477 C384.15010166 123.89145381 390.09112229 128.93012954 396.48461914 133.53344727 C402.48466894 125.90064055 408.24086686 118.13517695 413.81201172 110.18383789 C417.47441668 104.95763769 421.18041192 99.7656626 424.92211914 94.59594727 C425.45981934 93.8528833 425.99751953 93.10981934 426.55151367 92.34423828 C427.6441827 90.83501161 428.73711983 89.32597901 429.83032227 87.81713867 C432.6138014 83.97465581 435.39311396 80.12916641 438.17211914 76.28344727 C438.65801514 75.61192627 439.14391113 74.94040527 439.64453125 74.24853516 C440.63251365 72.88162745 441.60835442 71.50586478 442.57208252 70.12174988 C444.48461914 67.53344727 444.48461914 67.53344727 446.97859192 64.69586182 C455.31371287 54.86822451 455.75486961 46.67874135 455.10961914 34.15844727 C455.0593197 32.43982909 455.01371701 30.72106679 454.97290039 29.00219727 C454.86408579 24.84230478 454.692391 20.68952375 454.48461914 16.53344727 C443.70587431 16.23139457 432.92814552 16.00083802 422.14602089 15.85988903 C417.13838209 15.79221436 412.13365071 15.7005471 407.12768555 15.55273438 C402.29039674 15.41080658 397.45589112 15.33362239 392.61668015 15.30004311 C390.77680004 15.2761375 388.93706194 15.22944637 387.09837723 15.15895653 C373.00983075 14.64064009 367.45456913 17.22379549 360.48461914 29.53344727 Z M297.60961914 81.59594727 C295.27796593 84.41044868 295.27796593 84.41044868 294.73461914 87.90844727 C296.36929656 95.8093881 304.66961419 100.39108312 310.66040039 105.21313477 C313.3425558 107.41673133 315.92088335 109.69388551 318.48461914 112.03344727 C321.90201286 115.14803395 325.38984264 118.12531347 328.98461914 121.03344727 C333.44738128 124.64377169 337.71181447 128.41772655 341.95336914 132.28344727 C344.57306724 134.6120678 347.25977224 136.82907674 349.98461914 139.03344727 C353.57939564 141.94158106 357.06722542 144.91886058 360.48461914 148.03344727 C364.7874805 151.94823411 369.21155289 155.67147537 373.74633789 159.31469727 C375.58619979 160.80548409 377.40139367 162.32719145 379.19165039 163.87719727 C380.05145508 164.60938477 380.91125977 165.34157227 381.79711914 166.09594727 C382.55637695 166.75723633 383.31563477 167.41852539 384.09790039 168.09985352 C387.11822273 169.91402422 389.01516717 169.90433591 392.48461914 169.53344727 C395.49441797 168.19229327 395.49441797 168.19229327 397.48461914 165.53344727 C398.15231005 162.13935182 398.40234601 160.71250114 397.48461914 157.53344727 C395.56608887 154.70282883 393.11984072 152.68828991 390.48461914 150.53344727 C389.63899414 149.83348633 388.79336914 149.13352539 387.92211914 148.41235352 C386.05788077 146.88441951 384.18652726 145.3651332 382.30883789 143.85375977 C379.62668248 141.6501632 377.04835493 139.37300902 374.48461914 137.03344727 C371.06722542 133.91886058 367.57939564 130.94158106 363.98461914 128.03344727 C359.52185701 124.42312284 355.25742381 120.64916798 351.01586914 116.78344727 C348.39617104 114.45482673 345.70946604 112.23781779 342.98461914 110.03344727 C339.38984264 107.12531347 335.90201286 104.14803395 332.48461914 101.03344727 C328.18175778 97.11866043 323.7576854 93.39541916 319.22290039 89.75219727 C317.38303849 88.26141045 315.56784461 86.73970308 313.77758789 85.18969727 C312.9177832 84.45750977 312.05797852 83.72532227 311.17211914 82.97094727 C310.41286133 82.3096582 309.65360352 81.64836914 308.87133789 80.96704102 C304.62626184 78.41721629 301.55349663 78.76664385 297.60961914 81.59594727 Z M119.48461914 97.53344727 C117.04832902 99.40080482 114.76814501 101.42110411 112.48461914 103.47094727 C111.15295774 104.64584576 109.82091789 105.82031544 108.48852539 106.99438477 C107.81966309 107.58703125 107.15080078 108.17967773 106.46166992 108.7902832 C103.47515596 111.42349013 100.45015179 114.01071724 97.42211914 116.59594727 C96.26448665 117.58673874 95.10693457 118.57762418 93.94946289 119.56860352 C93.37824707 120.05731934 92.80703125 120.54603516 92.21850586 121.04956055 C89.30567868 123.54240251 86.39527854 126.03807493 83.48461914 128.53344727 C82.31796396 129.53346067 81.1512973 130.53346067 79.98461914 131.53344727 C79.40711914 132.02844727 78.82961914 132.52344727 78.23461914 133.03344727 C58.98461914 149.53344727 58.98461914 149.53344727 57.23193359 151.03564453 C56.07408066 152.02815924 54.91636411 153.02083307 53.75878906 154.01367188 C50.70841503 156.62956872 47.6551961 159.24204808 44.59790039 161.84985352 C43.96174805 162.39319336 43.3255957 162.9365332 42.67016602 163.49633789 C41.45228859 164.53642299 40.23358297 165.57553938 39.01391602 166.61352539 C37.49604654 167.91074327 35.98968267 169.22139325 34.48461914 170.53344727 C33.56229492 171.32235352 33.56229492 171.32235352 32.62133789 172.12719727 C30.80397065 174.37548663 30.95775135 176.8078014 31.07055664 179.59204102 C31.38441436 181.81618478 31.38441436 181.81618478 33.60961914 184.03344727 C36.97146194 185.78745221 38.7357377 185.8880073 42.48461914 185.53344727 C44.82237813 184.28210435 44.82237813 184.28210435 46.92211914 182.34594727 C47.78192383 181.61504883 48.64172852 180.88415039 49.52758789 180.13110352 C50.99131836 178.84526367 50.99131836 178.84526367 52.48461914 177.53344727 C53.64643549 176.53104993 54.80924837 175.52980679 55.97290039 174.52954102 C58.52952933 172.32671024 61.07816483 170.11507857 63.62133789 167.89672852 C67.24704063 164.73569656 70.89250295 161.59847515 74.54711914 158.47094727 C75.12042969 157.98013672 75.69374023 157.48932617 76.28442383 156.98364258 C77.43975578 155.99475124 78.59519171 155.00598137 79.75073242 154.01733398 C82.6635596 151.52449203 85.57395975 149.0288196 88.48461914 146.53344727 C89.65127432 145.53343386 90.81794098 144.53343386 91.98461914 143.53344727 C92.56211914 143.03844727 93.13961914 142.54344727 93.73461914 142.03344727 C98.98461914 137.53344727 98.98461914 137.53344727 100.7355957 136.03271484 C101.89914512 135.03531717 103.06255719 134.03775924 104.22583008 133.04003906 C107.18906979 130.49887425 110.15483885 127.96076528 113.12524414 125.42797852 C116.04841559 122.93520544 118.95931129 120.42859049 121.86694336 117.91772461 C123.41504212 116.59298571 124.98264167 115.29113813 126.55102539 113.99047852 C127.45723633 113.2209082 128.36344727 112.45133789 129.29711914 111.65844727 C130.48241211 110.67231445 130.48241211 110.67231445 131.69165039 109.66625977 C133.96589614 106.96094783 134.27855172 105.02722665 134.48461914 101.53344727 C133.11520769 97.98908822 132.03233027 96.82555987 128.67211914 95.03344727 C124.48938532 94.37733216 123.11958726 95.39806792 119.48461914 97.53344727 Z M294.48461914 114.53344727 C292.90121054 116.24855715 291.39348142 118.03379998 289.92211914 119.84594727 C289.02759458 120.94491105 288.13306317 122.04386925 287.23852539 123.14282227 C286.78364746 123.70549805 286.32876953 124.26817383 285.86010742 124.84790039 C284.53357633 126.47345429 283.18457023 128.07656621 281.82446289 129.67407227 C281.01106445 130.63829102 280.19766602 131.60250977 279.35961914 132.59594727 C278.61454102 133.47379883 277.86946289 134.35165039 277.10180664 135.25610352 C275.19512564 137.47559354 275.19512564 137.47559354 275.48461914 140.53344727 C276.11061531 142.21581198 276.77214182 143.88584346 277.48461914 145.53344727 C278.10208008 145.43805664 278.71954102 145.34266602 279.35571289 145.24438477 C286.92577731 144.25347831 292.94396014 144.62693857 299.73461914 148.28344727 C304.38387724 152.08738571 307.36709662 155.84501176 309.48461914 161.53344727 C310.54680664 161.48704102 311.60899414 161.44063477 312.70336914 161.39282227 C327.9262596 160.9194692 327.9262596 160.9194692 333.48461914 165.53344727 C337.63499228 169.47817129 341.29151801 173.64728702 341.58813477 179.61669922 C341.58413816 181.21983628 341.57352237 182.82296717 341.55712891 184.42602539 C341.33989029 192.14879621 341.33989029 192.14879621 344.26586914 199.00610352 C346.63416368 200.59172537 348.79514047 201.60053435 351.48461914 202.53344727 C352.26836914 202.86086914 353.05211914 203.18829102 353.85961914 203.52563477 C355.70580968 204.27070452 357.59250557 204.9142101 359.48461914 205.53344727 C359.64317383 204.54086914 359.80172852 203.54829102 359.96508789 202.52563477 C361.55946294 193.07402042 363.95815347 184.45415094 367.48461914 175.53344727 C366.63641602 174.80641602 365.78821289 174.07938477 364.91430664 173.33032227 C355.27107747 165.06469727 345.62784831 156.79907227 335.98461914 148.53344727 C335.40719971 148.03852783 334.82978027 147.5436084 334.23486328 147.03369141 C333.06733686 146.03293121 331.89985645 145.03211734 330.73242188 144.03125 C327.82928285 141.5424405 324.92536965 139.05454636 322.01977539 136.56860352 C321.44646484 136.07779297 320.8731543 135.58698242 320.2824707 135.08129883 C319.13254329 134.09703344 317.98215806 133.11330265 316.83129883 132.13012695 C313.64739791 129.40542526 310.48430458 126.65936002 307.34008789 123.88891602 C306.31226196 122.98677368 306.31226196 122.98677368 305.26367188 122.06640625 C303.93271611 120.89687551 302.60527038 119.72333553 301.28173828 118.54541016 C298.32101918 115.56141697 298.32101918 115.56141697 294.48461914 114.53344727 Z M131.48461914 131.53344727 C130.48495117 132.45963867 130.48495117 132.45963867 129.46508789 133.40454102 C123.84013534 138.57320371 118.11529225 143.51876216 112.16821289 148.31860352 C109.53753357 150.48977553 107.0051949 152.73586083 104.48461914 155.03344727 C100.18470123 158.95235979 95.72542367 162.62515596 91.20336914 166.28344727 C88.56314185 168.46846296 86.01732194 170.72516117 83.48461914 173.03344727 C79.12974842 177.00060294 74.62481499 180.74113671 70.04711914 184.44750977 C66.80722828 187.08485994 63.64144115 189.79753486 60.48461914 192.53344727 C61.12306151 195.87766922 62.39345407 198.18628478 64.23461914 201.03344727 C69.12693456 209.01556612 72.27320346 217.62457295 75.13305664 226.50219727 C75.46835388 227.54301453 75.46835388 227.54301453 75.8104248 228.6048584 C76.72657573 231.46317714 77.63801529 234.32273665 78.53149414 237.18823242 C82.49980455 249.86317738 87.88481876 260.63333334 96.10961914 271.15844727 C97.15664111 272.52713165 98.20215863 273.89696793 99.24633789 275.26782227 C100.04563721 276.31486328 100.04563721 276.31486328 100.86108398 277.38305664 C103.60483509 281.01718593 106.26377869 284.71161119 108.92211914 288.40844727 C109.46247803 289.15892334 110.00283691 289.90939941 110.55957031 290.68261719 C112.20226259 292.96550322 113.84347109 295.24945094 115.48461914 297.53344727 C119.80665674 303.5416551 124.13946746 309.54193414 128.48461914 315.53344727 C129.0957959 316.37746094 129.70697266 317.22147461 130.33666992 318.09106445 C132.21429386 320.67972698 134.09854074 323.26344008 135.98461914 325.84594727 C136.56010498 326.64057373 137.13559082 327.4352002 137.72851562 328.25390625 C143.01468574 336.15359523 143.01468574 336.15359523 151.04711914 340.15844727 C154.59110963 339.81786013 154.59110963 339.81786013 156.98461914 337.34594727 C158.67580324 334.74131675 158.67580324 334.74131675 158.40649414 332.33813477 C157.07785238 328.29591109 154.73888247 325.2548551 152.23461914 321.84594727 C151.69885254 321.1026416 151.16308594 320.35933594 150.61108398 319.59350586 C149.47784374 318.02316337 148.34087701 316.45550423 147.20043945 314.89038086 C145.55375981 312.62842223 143.91937916 310.35817465 142.28930664 308.08422852 C137.25752601 301.07412773 132.176033 294.10265323 127.04345703 287.16601562 C122.36820766 280.84632033 117.69515174 274.52591274 113.17211914 268.09594727 C112.47473633 267.10723633 111.77735352 266.11852539 111.05883789 265.09985352 C109.63521983 262.7789675 108.80126192 261.21360224 108.48461914 258.53344727 C109.29711914 255.34594727 109.29711914 255.34594727 110.48461914 252.53344727 C113.64258021 250.95446673 117.0913255 250.71416556 120.48461914 251.53344727 C124.76837945 255.15391566 127.77885841 259.56927597 130.92211914 264.15844727 C135.33047892 270.49999535 139.82368616 276.76580979 144.42211914 282.97094727 C148.99889534 289.15443728 153.54739243 295.35612645 158.04711914 301.59594727 C158.83687134 302.68963623 158.83687134 302.68963623 159.64257812 303.80541992 C162.44496905 307.69027024 165.23446368 311.58388456 168.01196289 315.48657227 C168.59324951 316.29989014 169.17453613 317.11320801 169.7734375 317.95117188 C170.88105234 319.50126376 171.98498155 321.05399863 173.08447266 322.60986328 C175.95552207 326.62069219 178.88089894 330.16158406 182.48461914 333.53344727 C183.47461914 333.20344727 184.46461914 332.87344727 185.48461914 332.53344727 C178.26209975 319.4138095 171.0094136 306.32169939 163.42211914 293.40844727 C158.48149044 284.98674479 153.59824216 276.5355792 148.79711914 268.03344727 C148.20858154 267.00074707 147.62004395 265.96804688 147.01367188 264.90405273 C141.8564981 255.72650563 139.03048721 249.18931615 139.86743164 238.48657227 C139.78299955 235.34517255 139.78299955 235.34517255 137.14868164 233.39672852 C136.26954102 232.7818457 135.39040039 232.16696289 134.48461914 231.53344727 C132.93774414 229.49829102 132.93774414 229.49829102 131.73461914 227.47094727 C131.32727539 226.7993457 130.91993164 226.12774414 130.50024414 225.43579102 C127.3149532 219.46949607 127.40853001 211.55257534 129.13305664 205.11157227 C131.99929746 198.79114378 136.35360339 194.7112359 142.82836914 192.27563477 C146.03147953 191.27988523 149.2351612 190.36413576 152.48461914 189.53344727 C152.55938477 188.91598633 152.63415039 188.29852539 152.71118164 187.66235352 C153.76226449 180.89214339 155.67568461 175.53987398 160.48461914 170.53344727 C165.77228521 166.88347678 171.09823263 164.94995073 177.48461914 164.53344727 C177.81461914 161.89344727 178.14461914 159.25344727 178.48461914 156.53344727 C177.57284912 156.12094727 176.6610791 155.70844727 175.72167969 155.28344727 C172.28101491 153.72282189 168.84805772 152.14581261 165.41699219 150.56420898 C163.94210003 149.88699368 162.46525807 149.21400575 160.98632812 148.5456543 C152.5982479 144.75124975 144.96642436 140.9084213 137.69482422 135.19750977 C135.68308768 133.68287415 133.77118509 132.5702071 131.48461914 131.53344727 Z M195.48461914 158.53344727 C194.23623533 161.93873722 194.23623533 161.93873722 194.48461914 165.53344727 C196.27681014 167.9951688 196.27681014 167.9951688 198.48461914 169.53344727 C198.61739258 168.85797852 198.75016602 168.18250977 198.88696289 167.48657227 C199.06356445 166.59454102 199.24016602 165.70250977 199.42211914 164.78344727 C199.59614258 163.90172852 199.77016602 163.02000977 199.94946289 162.11157227 C200.40830402 159.90109673 200.91797988 157.71832659 201.48461914 155.53344727 C198.97405686 155.53344727 197.37126645 157.0712956 195.48461914 158.53344727 Z M249.17211914 147.34594727 C246.63648835 150.63287607 246.3586974 153.25689985 246.34658813 157.27783203 C246.3411348 158.25366241 246.33568146 159.2294928 246.33006287 160.2348938 C246.32902054 161.30408051 246.32797821 162.37326721 246.3269043 163.47485352 C246.32182358 164.6018869 246.31674286 165.72892029 246.31150818 166.8901062 C246.30079748 169.34061909 246.29218005 171.79114181 246.28538895 174.2416687 C246.27362148 178.11575478 246.25417555 181.98972829 246.23226929 185.86376953 C246.17057001 196.87960063 246.11629359 207.89541971 246.08325195 218.91137695 C246.0629657 225.6452054 246.02710222 232.3788006 245.98249435 239.11251831 C245.96829366 241.68339627 245.9596028 244.2543106 245.95643997 246.82522583 C245.95155592 250.41438474 245.9284632 254.00299313 245.90112305 257.59204102 C245.90563225 259.19582108 245.90563225 259.19582108 245.91023254 260.83200073 C245.89913956 261.80783112 245.88804657 262.7836615 245.87661743 263.7890625 C245.87330729 264.63782455 245.86999714 265.48658661 245.86658669 266.36106873 C245.39918066 269.01936481 244.59952558 269.90629258 242.48461914 271.53344727 C240.54711914 271.93188477 240.54711914 271.93188477 238.48461914 271.90844727 C237.46368164 271.92004883 237.46368164 271.92004883 236.42211914 271.93188477 C233.89116011 271.41140529 233.09905345 270.52753648 231.48461914 268.53344727 C231.10823822 266.61932659 231.10823822 266.61932659 231.1060791 264.41667175 C231.09787643 263.57980331 231.08967377 262.74293488 231.08122253 261.88070679 C231.08737076 260.96584503 231.09351898 260.05098328 231.09985352 259.10839844 C231.09448074 258.14224106 231.08910797 257.17608368 231.08357239 256.1806488 C231.07378094 254.08047169 231.07085435 251.98025407 231.07392883 249.88005638 C231.07839755 246.55528269 231.06443223 243.23104392 231.04553223 239.90632629 C231.00869598 232.84454212 230.9950354 225.78281338 230.98461914 218.72094727 C230.97254518 210.54853821 230.95099573 202.37638845 230.90461731 194.20409584 C230.89104054 190.93024666 230.89521993 187.65672461 230.90002441 184.38285828 C230.89068237 182.37079451 230.88051319 180.35873436 230.86938477 178.34667969 C230.87553299 177.43789062 230.88168121 176.52910156 230.88801575 175.59277344 C230.83865527 170.50591757 230.35442756 166.92374539 227.48461914 162.53344727 C224.64378273 161.11302906 222.62984636 161.21892454 219.48461914 161.53344727 C216.33364695 163.91796676 215.20783218 165.72492249 214.48461914 169.53344727 C214.39448943 170.93772813 214.35156662 172.34553936 214.34658813 173.75270081 C214.3411348 174.58686523 214.33568146 175.42102966 214.33006287 176.2804718 C214.32849937 177.64041512 214.32849937 177.64041512 214.3269043 179.02783203 C214.32182358 179.98920074 214.31674286 180.95056946 214.31150818 181.94107056 C214.30081421 184.02706049 214.29219022 186.11306182 214.28538895 188.19906807 C214.27359978 191.49775829 214.25414889 194.79631761 214.23226929 198.09495544 C214.17063833 207.47309036 214.11652081 216.85121032 214.08325195 226.22949219 C214.06235364 231.96597132 214.02709481 237.70220927 213.98249435 243.43855095 C213.96830127 245.62704577 213.9596045 247.81558323 213.95643997 250.00412178 C213.95155302 253.05915877 213.92845425 256.11355033 213.90112305 259.16845703 C213.90412918 260.07711014 213.90713531 260.98576324 213.91023254 261.92195129 C213.89913956 262.7532959 213.88804657 263.5846405 213.87661743 264.44117737 C213.87330729 265.16327676 213.86999714 265.88537615 213.86658669 266.62935734 C213.36265401 269.14143763 212.52750467 270.01648573 210.48461914 271.53344727 C205.01826183 272.23878369 205.01826183 272.23878369 202.48461914 271.53344727 C198.34853329 267.88877755 194.82879771 263.58271078 191.23461914 259.40844727 C190.38299194 258.42255615 190.38299194 258.42255615 189.51416016 257.41674805 C183.99307629 251.00290312 178.55742227 244.51607478 173.38696289 237.81469727 C171.17424351 235.16125144 169.83244107 234.33054773 166.48461914 233.53344727 C162.16024713 233.53344727 160.8052087 234.23376572 157.60961914 237.22094727 C155.2226979 240.94173626 155.07987234 242.23208649 155.48461914 246.53344727 C156.50494697 249.18929261 156.50494697 249.18929261 158.05493164 251.74438477 C158.61438477 252.72922852 159.17383789 253.71407227 159.75024414 254.72875977 C160.36383789 255.77805664 160.97743164 256.82735352 161.60961914 257.90844727 C162.24125977 259.01188477 162.87290039 260.11532227 163.52368164 261.25219727 C165.49603513 264.68816227 167.48708753 268.11206959 169.48461914 271.53344727 C170.38132324 273.07307129 170.38132324 273.07307129 171.29614258 274.64379883 C173.60282391 278.60198645 175.91240033 282.55841968 178.23120117 286.50952148 C183.00364248 294.65496642 187.61896461 302.88216941 192.20825195 311.13183594 C197.04010763 319.79493573 202.01344585 328.37064838 207.04321289 336.92016602 C207.87272461 338.33168945 207.87272461 338.33168945 208.71899414 339.77172852 C209.44940918 341.00983276 209.44940918 341.00983276 210.19458008 342.27294922 C217.16694521 354.4904225 213.71357143 354.94411138 214.48461914 376.53344727 C246.16461914 376.53344727 277.84461914 376.53344727 310.48461914 376.53344727 C310.81461914 362.67344727 311.14461914 348.81344727 311.48461914 334.53344727 C314.27044253 321.96326854 314.27044253 321.96326854 316.53735352 316.0534668 C318.06319326 311.99426117 319.38383958 307.8705059 320.71679688 303.74462891 C321.4125033 301.59619315 322.12434304 299.45288106 322.85595703 297.31640625 C323.18329834 296.33357666 323.51063965 295.35074707 323.84790039 294.33813477 C324.13963135 293.48203613 324.4313623 292.6259375 324.73193359 291.74389648 C327.40597728 280.33822846 326.66537317 268.22290075 326.68774414 256.58032227 C326.69057152 255.58415138 326.6933989 254.5879805 326.69631195 253.56162262 C326.71121826 248.30157717 326.72050478 243.04155859 326.72485352 237.78149414 C326.73036099 232.36234207 326.75446117 226.94343833 326.78282547 221.52436447 C326.80146168 217.33957188 326.80665773 213.15483943 326.80818939 208.97000885 C326.81120842 206.97178015 326.81921154 204.97355231 326.83237457 202.97536469 C326.84947418 200.18300848 326.84754657 197.3912646 326.84106445 194.59887695 C326.85488663 193.37214767 326.85488663 193.37214767 326.86898804 192.12063599 C326.83091733 186.87176695 325.97305967 183.18499924 323.48461914 178.53344727 C320.64378273 177.11302906 318.62984636 177.21892454 315.48461914 177.53344727 C312.63681295 179.76551158 311.63464248 181.08337725 310.48461914 184.53344727 C310.37996161 187.20960718 310.33052765 189.86079998 310.3269043 192.53735352 C310.32182358 193.35227264 310.31674286 194.16719177 310.31150818 195.00680542 C310.30080858 196.77632574 310.29218679 198.54585956 310.28538895 200.31539917 C310.27360501 203.11414686 310.25415503 205.9127399 310.23226929 208.71142578 C310.17062477 216.66864912 310.11654044 224.62585544 310.08325195 232.58325195 C310.06234447 237.44976402 310.02707669 242.31599228 309.98249435 247.18234253 C309.96830666 249.03869291 309.95960569 250.89509347 309.95643997 252.75149536 C309.95154874 255.34448103 309.92843912 257.93670858 309.90112305 260.52954102 C309.90563225 261.68448563 309.90563225 261.68448563 309.91023254 262.86276245 C309.82880241 268.04952576 309.82880241 268.04952576 308.0796814 270.50878906 C306.09054931 271.7865953 304.83964401 271.93520891 302.48461914 271.90844727 C301.46368164 271.92004883 301.46368164 271.92004883 300.42211914 271.93188477 C297.89241825 271.41166402 297.09959411 270.52498795 295.48461914 268.53344727 C295.10823822 266.63773727 295.10823822 266.63773727 295.1060791 264.46136475 C295.09787643 263.63435562 295.08967377 262.8073465 295.08122253 261.95527649 C295.08737076 261.05133652 295.09351898 260.14739655 295.09985352 259.21606445 C295.09448074 258.26126694 295.08910797 257.30646942 295.08357239 256.32273865 C295.07378089 254.24711889 295.07085436 252.17145814 295.07392883 250.09581757 C295.07839872 246.80857264 295.06442841 243.52186843 295.04553223 240.23468018 C295.00869621 233.25094482 294.99503792 226.26726547 294.98461914 219.28344727 C294.97253998 211.20443533 294.95095248 203.12568544 294.90461731 195.04679108 C294.89105571 191.81231884 294.89521742 188.57817844 294.90002441 185.34368896 C294.89068059 183.35192444 294.88051096 181.36016357 294.86938477 179.3684082 C294.87553299 178.47256516 294.88168121 177.57672211 294.88801575 176.6537323 C294.83474259 171.20937265 294.09823 167.34585915 291.48461914 162.53344727 C288.64378273 161.11302906 286.62984636 161.21892454 283.48461914 161.53344727 C280.63681295 163.76551158 279.63464248 165.08337725 278.48461914 168.53344727 C278.39132899 169.9100448 278.35141421 171.29066361 278.34658813 172.67041016 C278.3411348 173.51161407 278.33568146 174.35281799 278.33006287 175.21951294 C278.32902054 176.13908783 278.32797821 177.05866272 278.3269043 178.00610352 C278.32182358 178.97707977 278.31674286 179.94805603 278.31150818 180.94845581 C278.30080213 183.05847265 278.29218287 185.16850087 278.28538895 187.27853394 C278.27361458 190.61494927 278.25416694 193.9512343 278.23226929 197.28759766 C278.17059298 206.77412611 278.11653458 216.26064053 278.08325195 225.74731445 C278.06235309 231.54747792 278.02709146 237.34740287 277.98249435 243.14743042 C277.96829911 245.36104533 277.95960401 247.57470243 277.95643997 249.7883606 C277.95155292 252.87942628 277.92845307 255.96985409 277.90112305 259.06079102 C277.90563225 260.44015335 277.90563225 260.44015335 277.91023254 261.84738159 C277.89359306 263.10918747 277.89359306 263.10918747 277.87661743 264.39648438 C277.87330729 265.12725693 277.86999714 265.85802948 277.86658669 266.61094666 C277.37476926 269.08633837 276.43800557 269.98411424 274.48461914 271.53344727 C272.54711914 271.93188477 272.54711914 271.93188477 270.48461914 271.90844727 C269.46368164 271.92004883 269.46368164 271.92004883 268.42211914 271.93188477 C265.87465973 271.40801206 265.09277151 270.5601031 263.48461914 268.53344727 C263.10823822 266.38785934 263.10823822 266.38785934 263.1060791 263.85394287 C263.09787643 262.89230728 263.08967377 261.93067169 263.08122253 260.93989563 C263.08737076 259.88634384 263.09351898 258.83279205 263.09985352 257.74731445 C263.09448074 256.63645981 263.08910797 255.52560516 263.08357239 254.38108826 C263.07377671 251.96497082 263.07085561 249.54881814 263.07392883 247.1326828 C263.07839546 243.30778654 263.0644376 239.48335577 263.04553223 235.6585083 C263.00868427 227.53348719 262.99488425 219.40853463 262.98461914 211.28344727 C262.97272773 201.8827536 262.95099136 192.48230924 262.90461731 183.08170319 C262.89104074 179.31542633 262.8952201 175.54943385 262.90002441 171.78314209 C262.89068211 169.46781045 262.88051287 167.15248195 262.86938477 164.8371582 C262.87553299 163.79170334 262.88168121 162.74624847 262.88801575 161.66911316 C262.8391081 155.8681983 262.34309636 151.63282677 259.48461914 146.53344727 C255.68930435 144.63578987 252.5113995 144.72867347 249.17211914 147.34594727 Z M171.04711914 183.15844727 C169.01300578 186.25029957 168.87856485 187.89712152 169.48461914 191.53344727 C172.30525979 194.97966791 174.89084351 196.32516747 179.09008789 197.67407227 C180.15549805 198.02211914 181.2209082 198.37016602 182.31860352 198.72875977 C183.42526367 199.07680664 184.53192383 199.42485352 185.67211914 199.78344727 C186.79038086 200.14696289 187.90864258 200.51047852 189.06079102 200.88500977 C193.68073918 202.67853529 193.68073918 202.67853529 198.48461914 203.53344727 C198.48461914 198.25344727 198.48461914 192.97344727 198.48461914 187.53344727 C195.63458502 186.5201018 192.7805325 185.52264098 189.92211914 184.53344727 C189.12225586 184.24727539 188.32239258 183.96110352 187.49829102 183.66625977 C179.13336082 180.72561363 179.13336082 180.72561363 171.04711914 183.15844727 Z M145.48461914 209.53344727 C144.1480177 212.88937589 144.1480177 212.88937589 144.48461914 216.53344727 C146.77661317 219.493956 146.77661317 219.493956 149.48461914 221.53344727 C150.2696582 221.24469727 151.05469727 220.95594727 151.86352539 220.65844727 C161.40174725 217.28788543 169.07912371 216.12638129 178.48461914 220.53344727 C185.35743305 225.43507068 190.60796295 231.83031481 195.76977539 238.44360352 C196.33567383 239.13325195 196.90157227 239.82290039 197.48461914 240.53344727 C197.81461914 240.53344727 198.14461914 240.53344727 198.48461914 240.53344727 C198.48461914 234.26344727 198.48461914 227.99344727 198.48461914 221.53344727 C192.37934474 219.22281689 192.37934474 219.22281689 186.22753906 217.09130859 C185.49705856 216.85128616 184.76657806 216.61126373 184.01396179 216.3639679 C183.2553334 216.1169664 182.49670502 215.8699649 181.71508789 215.61547852 C180.91226883 215.35337082 180.10944977 215.09126312 179.28230286 214.82121277 C177.60111838 214.27322136 175.91961073 213.72622051 174.23779297 213.18017578 C171.66037872 212.34212987 169.08519805 211.49744539 166.51000977 210.65258789 C164.87016842 210.11897705 163.23019895 209.58575977 161.59008789 209.05297852 C160.82133835 208.79990433 160.05258881 208.54683014 159.26054382 208.28608704 C153.57068242 206.45055865 150.3289592 205.58148564 145.48461914 209.53344727 Z M342.48461914 216.53344727 C342.48541473 217.41389206 342.48621033 218.29433685 342.48703003 219.20146179 C342.48926019 227.59812811 342.46224779 235.99412239 342.40434074 244.39059734 C342.37556583 248.70487746 342.35715595 253.018626 342.36450195 257.33300781 C342.41061641 292.32115379 342.41061641 292.32115379 336.76635742 307.89599609 C335.26305697 311.51944126 335.26305697 311.51944126 335.48461914 315.53344727 C342.83366881 317.67526771 350.18450172 319.81087946 357.53662109 321.94213867 C360.03866632 322.66824022 362.54029641 323.39577382 365.04150391 324.12475586 C368.63214245 325.17098751 372.22423159 326.21209738 375.81665039 327.25219727 C376.93860306 327.58030396 378.06055573 327.90841064 379.21650696 328.24645996 C380.77778572 328.69692688 380.77778572 328.69692688 382.37060547 329.15649414 C383.28771805 329.42296753 384.20483063 329.68944092 385.1497345 329.96398926 C387.56982647 330.65192024 387.56982647 330.65192024 390.48461914 330.53344727 C390.48461914 298.52344727 390.48461914 266.51344727 390.48461914 233.53344727 C376.29461914 228.58344727 362.10461914 223.63344727 347.48461914 218.53344727 C345.00961914 217.54344727 345.00961914 217.54344727 342.48461914 216.53344727 Z M407.48461914 233.53344727 C406.49044422 236.42711467 406.35727452 239.11308918 406.35090637 242.15684509 C406.34664139 243.0806749 406.3423764 244.0045047 406.33798218 244.95632935 C406.33843536 245.96267426 406.33888855 246.96901917 406.33935547 248.00585938 C406.33599686 249.07130478 406.33263824 250.13675018 406.32917786 251.23448181 C406.3196712 254.75993004 406.31772496 258.28533077 406.31665039 261.81079102 C406.3134379 264.25932332 406.31007383 266.70785543 406.30656433 269.15638733 C406.30057398 274.29013514 406.29872437 279.42386612 406.29931641 284.55761719 C406.29941809 291.13958319 406.28575915 297.72144147 406.2685442 304.30338192 C406.25743302 309.36052447 406.25539692 314.41764088 406.25592613 319.47479439 C406.25474494 321.90170221 406.25031542 324.32861069 406.24259377 326.75550652 C406.23281071 330.14762834 406.23566526 333.53951512 406.24169922 336.93164062 C406.23607971 337.9359613 406.23046021 338.94028198 406.22467041 339.97503662 C406.24000192 347.84296816 406.24000192 347.84296816 410.23461914 354.40844727 C413.37919554 355.98073546 415.16317259 355.52281432 418.48461914 354.53344727 C421.25512146 352.52722145 421.8330155 350.81068035 422.48461914 347.53344727 C422.57477127 345.99430826 422.61510621 344.45182305 422.61833191 342.91004944 C422.62259689 341.98621964 422.62686188 341.06238983 422.6312561 340.11056519 C422.63057632 338.60104782 422.63057632 338.60104782 422.62988281 337.06103516 C422.63324142 335.99558975 422.63660004 334.93014435 422.64006042 333.83241272 C422.64956708 330.30696449 422.65151332 326.78156377 422.65258789 323.25610352 C422.65580038 320.80757121 422.65916445 318.3590391 422.66267395 315.9105072 C422.6686643 310.77675939 422.67051392 305.64302841 422.66992188 300.50927734 C422.66982019 293.92731134 422.68347914 287.34545307 422.70069408 280.76351261 C422.71180526 275.70637006 422.71384136 270.64925365 422.71331215 265.59210014 C422.71449334 263.16519232 422.71892286 260.73828384 422.72664452 258.31138802 C422.73642757 254.91926619 422.73357302 251.52737941 422.72753906 248.13525391 C422.73596832 246.62877289 422.73596832 246.62877289 422.74456787 245.09185791 C422.75881434 238.57175665 422.75881434 238.57175665 420.48461914 232.53344727 C415.69715092 227.90556132 411.97106269 229.16825895 407.48461914 233.53344727 Z M438.48461914 249.53344727 C438.48461914 280.88344727 438.48461914 312.23344727 438.48461914 344.53344727 C446.38999698 347.6706494 446.38999698 347.6706494 454.48461914 349.53344727 C454.48461914 318.18344727 454.48461914 286.83344727 454.48461914 254.53344727 C449.20461914 252.88344727 443.92461914 251.23344727 438.48461914 249.53344727 Z M44.48461914 288.53344727 C43.37260732 292.32419781 43.54030834 294.70463923 44.77334595 298.42895508 C45.08448334 299.38781616 45.39562073 300.34667725 45.71618652 301.33459473 C46.06725464 302.37474731 46.41832275 303.4148999 46.7800293 304.48657227 C47.14248749 305.59117798 47.50494568 306.69578369 47.87838745 307.8338623 C49.08125157 311.48789717 50.30174465 315.13575006 51.52368164 318.78344727 C52.15291181 320.67895908 52.78213584 322.5744731 53.41043127 324.47029495 C55.38606723 330.43119348 57.37400409 336.38788925 59.36987305 342.34204102 C61.42599766 348.47659113 63.46240187 354.61743005 65.48897707 360.76179886 C67.23180187 366.04373186 68.98629775 371.32168606 70.75025403 376.59659958 C71.80268769 379.74405936 72.84954464 382.89316948 73.88795853 386.04528809 C75.04857069 389.56196003 76.22814966 393.07170145 77.4128418 396.58032227 C77.75176453 397.62047485 78.09068726 398.66062744 78.43988037 399.7322998 C80.30327863 405.17874262 81.83936166 409.00586016 86.48461914 412.53344727 C89.52770205 413.28359922 89.52770205 413.28359922 92.48461914 412.53344727 C95.11327876 410.61523619 96.25287027 409.32345878 97.17063332 406.19488525 C97.52258685 403.21162156 97.13583054 401.4769662 96.19589233 398.63793945 C95.88475494 397.67907837 95.57361755 396.72021729 95.25305176 395.7322998 C94.72644958 394.17207092 94.72644958 394.17207092 94.18920898 392.58032227 C93.82675079 391.47571655 93.4642926 390.37111084 93.09085083 389.23303223 C91.88798672 385.57899736 90.66749363 381.93114448 89.44555664 378.28344727 C88.81632647 376.38793545 88.18710245 374.49242143 87.55880702 372.59659958 C85.58317105 366.63570105 83.5952342 360.67900528 81.59936523 354.72485352 C79.54324063 348.5903034 77.50683641 342.44946449 75.48026121 336.30509567 C73.73743641 331.02316268 71.98294054 325.74520847 70.21898425 320.47029495 C69.16655059 317.32283517 68.11969364 314.17372505 67.08127975 311.02160645 C65.92066759 307.5049345 64.74108862 303.99519309 63.55639648 300.48657227 C63.21747375 299.44641968 62.87855103 298.40626709 62.52935791 297.33459473 C60.66595966 291.88815191 59.12987662 288.06103438 54.48461914 284.53344727 C49.62489518 283.64084491 47.38622598 284.55717123 44.48461914 288.53344727 Z M85.48461914 293.90844727 C84.57711914 294.16368164 83.66961914 294.41891602 82.73461914 294.68188477 C80.31538377 295.30673485 80.31538377 295.30673485 79.48461914 297.53344727 C80.26444282 300.40391108 81.12122692 303.18780986 82.06152344 306.00634766 C82.49057732 307.32110832 82.49057732 307.32110832 82.92829895 308.66242981 C83.8803608 311.57139295 84.8438733 314.47639689 85.80883789 317.38110352 C86.47347642 319.39361079 87.13792823 321.40617973 87.80220032 323.41880798 C89.19828075 327.64155368 90.60073483 331.86212411 92.00683594 336.08154297 C93.81109843 341.49941545 95.59317168 346.92430509 97.36973858 352.35131168 C98.73542797 356.51134684 100.11594362 360.66634748 101.50071144 364.82006645 C102.16431794 366.81865606 102.82250662 368.81905277 103.47525597 370.82121468 C104.38826661 373.61623146 105.3217202 376.40357471 106.26074219 379.18994141 C106.52845428 380.02477051 106.79616638 380.85959961 107.07199097 381.71972656 C107.89877085 384.25530507 107.89877085 384.25530507 109.48461914 387.53344727 C112.58304136 388.70018783 114.2954482 388.53329561 117.34082031 387.31762695 C118.08647751 387.02692322 118.8321347 386.73621948 119.60038757 386.43670654 C120.40136368 386.11284973 121.20233978 385.78899292 122.02758789 385.45532227 C123.75993135 384.78194341 125.49235606 384.10877355 127.22485352 383.43579102 C129.92932751 382.37013448 132.63171931 381.29954787 135.33203125 380.22338867 C152.28517519 373.49742162 167.2050347 369.95948519 185.54711914 370.34594727 C186.80588867 370.35948242 188.0646582 370.37301758 189.36157227 370.38696289 C192.40308017 370.4216569 195.44358789 370.47051602 198.48461914 370.53344727 C198.56622734 368.15774184 198.62539136 365.78488886 198.67211914 363.40844727 C198.69725586 362.74329102 198.72239258 362.07813477 198.74829102 361.39282227 C198.81782628 356.66442435 197.88740289 353.58223248 195.48461914 349.53344727 C194.73438477 349.64043945 193.98415039 349.74743164 193.21118164 349.85766602 C185.84467589 350.72049352 180.39039353 350.18044238 173.48461914 347.53344727 C171.99961914 347.03844727 171.99961914 347.03844727 170.48461914 346.53344727 C169.98961914 347.27594727 169.49461914 348.01844727 168.98461914 348.78344727 C164.3138396 353.92130476 158.65511419 356.09966409 151.77368164 356.56079102 C143.87392499 356.46642532 138.10151246 354.09755024 132.48461914 348.53344727 C128.9218056 344.36249831 125.69494044 339.97568771 122.48461914 335.53344727 C121.46119933 334.12848646 120.43776115 332.72353904 119.41430664 331.31860352 C116.6604419 327.52612879 113.92472788 323.72087484 111.19311523 319.91235352 C108.29962887 315.88346939 105.39115972 311.8654182 102.48461914 307.84594727 C101.4427124 306.40471454 100.40103438 304.96331643 99.35961914 303.52172852 C98.87879883 302.85737793 98.39797852 302.19302734 97.90258789 301.50854492 C96.93829154 300.16537043 95.98285701 298.81579893 95.03540039 297.46069336 C93.87414403 295.80240929 92.68245792 294.16550261 91.48461914 292.53344727 C89.44303965 292.53344727 87.42814524 293.35078779 85.48461914 293.90844727 Z M6.48461914 318.53344727 C6.48461914 354.83344727 6.48461914 391.13344727 6.48461914 428.53344727 C29.18351928 420.22028065 29.18351928 420.22028065 51.85961914 411.84594727 C53.01204102 411.41862305 54.16446289 410.99129883 55.35180664 410.55102539 C58.06292506 409.54565231 60.77383125 408.53971104 63.48461914 407.53344727 C60.88975736 397.23513516 57.50547735 387.19555476 54.17211914 377.11938477 C53.86970306 376.20398548 53.56728699 375.2885862 53.25570679 374.34544754 C51.6607278 369.51908314 50.06194944 364.69399616 48.46020508 359.86987305 C46.80571264 354.88407922 45.16530647 349.89376398 43.52781677 344.90236473 C42.26439023 341.06000211 40.99043153 337.22119304 39.71353149 333.38328934 C39.10347211 331.54334697 38.49747994 329.70205098 37.89559937 327.85941696 C37.05752754 325.29686097 36.20467394 322.73970271 35.34790039 320.18334961 C34.97841782 319.03647171 34.97841782 319.03647171 34.60147095 317.86642456 C33.98577271 316.05565586 33.24582672 314.28802147 32.48461914 312.53344727 C24.0466099 309.72077752 14.99370016 315.94372695 6.48461914 318.53344727 Z M200.48461914 395.53344727 C199.06420093 398.37428368 199.17009642 400.38822004 199.48461914 403.53344727 C201.71668345 406.38125345 203.03454913 407.38342393 206.48461914 408.53344727 C208.0064787 408.62862301 209.53213845 408.66832623 211.05696106 408.67388916 C212.46371849 408.68245438 212.46371849 408.68245438 213.89889526 408.69119263 C214.92596588 408.69231049 215.9530365 408.69342834 217.01123047 408.69458008 C218.09443069 408.69954498 219.17763092 408.70450989 220.2936554 408.70962524 C223.88466014 408.72425559 227.47562071 408.73105034 231.06665039 408.73657227 C233.55905662 408.74232299 236.05146283 408.74808073 238.54386902 408.75384521 C243.10488178 408.76301355 247.66588185 408.76931286 252.22690278 408.77234197 C258.26640946 408.77637534 264.30576067 408.78865084 270.34521484 408.81469727 C276.82609761 408.84221779 283.30684689 408.8550893 289.78778648 408.85701752 C292.25853269 408.86004565 294.72927801 408.86807952 297.19999123 408.8812027 C300.65675952 408.8982526 304.11303096 408.89638523 307.56982422 408.88989258 C308.59082214 408.89910736 309.61182007 408.90832214 310.66375732 408.91781616 C316.00454287 408.88638456 319.90363305 408.61791976 324.48461914 405.53344727 C325.90503735 402.69261085 325.79914186 400.67867449 325.48461914 397.53344727 C323.25255483 394.68564108 321.93468916 393.6834706 318.48461914 392.53344727 C316.96275958 392.43827152 315.43709984 392.3985683 313.91227722 392.39300537 C312.97443893 392.38729523 312.03660065 392.38158508 311.07034302 392.3757019 C310.0432724 392.37458405 309.01620178 392.37346619 307.95800781 392.37231445 C306.87480759 392.36734955 305.79160736 392.36238464 304.67558289 392.35726929 C301.08457814 392.34263894 297.49361757 392.33584419 293.90258789 392.33032227 C291.41018167 392.32457154 288.91777546 392.3188138 286.42536926 392.31304932 C281.8643565 392.30388098 277.30335643 392.29758167 272.7423355 392.29455256 C266.70282882 392.29051919 260.66347761 392.27824369 254.62402344 392.25219727 C248.14314067 392.22467675 241.66239139 392.21180523 235.1814518 392.20987701 C232.71070559 392.20684889 230.23996027 392.19881501 227.76924706 392.18569183 C224.31247876 392.16864193 220.85620732 392.1705093 217.39941406 392.17700195 C216.37841614 392.16778717 215.35741821 392.15857239 214.30548096 392.14907837 C208.96469541 392.18050997 205.06560524 392.44897477 200.48461914 395.53344727 Z M214.48461914 424.53344727 C214.48461914 437.73344727 214.48461914 450.93344727 214.48461914 464.53344727 C246.16461914 464.53344727 277.84461914 464.53344727 310.48461914 464.53344727 C310.48461914 451.33344727 310.48461914 438.13344727 310.48461914 424.53344727 C278.80461914 424.53344727 247.12461914 424.53344727 214.48461914 424.53344727 Z " fill="#000000" transform="translate(25.515380859375,15.466552734375)"/>
</svg>
